<svg width="41" height="40" viewBox="0 0 41 40" fill="none" xmlns="http://www.w3.org/2000/svg">
<path fill-rule="evenodd" clip-rule="evenodd" d="M10.9228 6H29.4494C30.1049 6 30.7598 6.09626 31.4443 6.41538C32.2648 6.79772 32.6999 7.40067 33.0047 7.84648C33.0284 7.88116 33.0506 7.91691 33.0711 7.95348C33.4295 8.59147 33.6143 9.2803 33.6143 10.0213C33.6143 10.7253 33.4467 11.4924 33.0711 12.1609C33.0676 12.1673 33.0639 12.1737 33.0603 12.18L21.3554 32.2864C21.0973 32.7297 20.6222 33.0018 20.1092 33C19.5961 32.9981 19.1229 32.7228 18.868 32.2775L7.37809 12.214C7.37478 12.2087 7.37148 12.2031 7.36818 12.1977C7.10522 11.7644 6.69858 11.0943 6.62744 10.2295C6.56208 9.43437 6.74081 8.63759 7.14038 7.94676C7.53994 7.2558 8.14148 6.70346 8.865 6.36536C9.64077 6.00283 10.4269 6 10.9228 6ZM18.6781 8.87236H10.9228C10.4132 8.87236 10.2177 8.90373 10.0809 8.96768C9.89181 9.05592 9.73303 9.20102 9.62685 9.3847C9.52068 9.56838 9.47266 9.7812 9.49012 9.99414C9.50015 10.1164 9.54994 10.256 9.84357 10.7403C9.8497 10.7505 9.85572 10.7607 9.86161 10.771L18.6781 26.1661V8.87236ZM21.5504 8.87236V26.2421L30.5711 10.7466C30.6729 10.5616 30.7419 10.2943 30.7419 10.0213C30.7419 9.79984 30.696 9.60755 30.5934 9.40924C30.4857 9.25446 30.4201 9.17247 30.3652 9.11632C30.3181 9.06831 30.2819 9.04259 30.2307 9.01876C30.0174 8.91931 29.7992 8.87236 29.4494 8.87236H21.5504Z" fill="#4C739F"/>
</svg>
