<svg width="49" height="40" viewBox="0 0 49 40" fill="none" xmlns="http://www.w3.org/2000/svg">
<path fill-rule="evenodd" clip-rule="evenodd" d="M37.1815 6.51614L37.9817 7.56977C38.1918 7.84785 38.1393 8.24644 37.8612 8.45654L37.0115 9.10231C37.166 9.51326 37.2649 9.95201 37.3051 10.4L38.2722 10.5329C38.6182 10.5792 38.8592 10.9006 38.8129 11.2466L38.6337 12.5598C38.5873 12.9059 38.266 13.15 37.9199 13.1005L36.8632 12.9553C36.6748 13.3662 36.4337 13.7432 36.1495 14.08L36.7427 14.8586C36.9528 15.1367 36.8972 15.5353 36.6191 15.7454L35.5655 16.5457C35.2874 16.7558 34.8888 16.7002 34.6787 16.4252L34.033 15.5755C33.6189 15.73 33.1833 15.8288 32.7322 15.869L32.5993 16.8361C32.5529 17.1822 32.2316 17.4232 31.8856 17.3768L30.5724 17.1976C30.2263 17.1513 29.9853 16.8299 30.0317 16.4839L30.1769 15.4272C29.769 15.2387 29.389 14.9977 29.0522 14.7165L28.2736 15.3066C27.9955 15.5168 27.5969 15.4642 27.3868 15.1861L26.5865 14.1325C26.3764 13.8544 26.429 13.4559 26.707 13.2457L27.5567 12.6C27.4022 12.1859 27.3034 11.7503 27.2632 11.3023L26.2961 11.1694C25.95 11.123 25.7059 10.8017 25.7554 10.4556L25.9346 9.14248C25.984 8.79642 26.3023 8.55542 26.6483 8.60176L27.705 8.74699C27.8935 8.33913 28.1345 7.95908 28.4157 7.6223L27.8255 6.84366C27.6154 6.56867 27.668 6.17009 27.946 5.95998L28.9997 5.15972C29.2778 4.94961 29.6763 5.00214 29.8864 5.28022L30.5322 6.12992C30.9432 5.97543 31.3819 5.87655 31.8299 5.83639L31.9628 4.86928C32.0091 4.52322 32.3305 4.27912 32.6765 4.32547L33.9897 4.50468C34.3358 4.55103 34.5799 4.87237 34.5304 5.21843L34.3852 6.27514C34.7962 6.46362 35.1731 6.70462 35.513 6.98889L36.2916 6.39873C36.5697 6.18554 36.9683 6.23806 37.1815 6.51614ZM14.5888 25.0581V19.9599H17.2151C17.7033 19.9599 18.0741 20.0001 18.3306 20.0866C18.587 20.17 18.7971 20.3245 18.9516 20.5501C19.1092 20.7787 19.1895 21.0537 19.1895 21.3781C19.1895 21.6593 19.1277 21.9065 19.0072 22.1104C18.8867 22.3174 18.7199 22.4843 18.5098 22.611C18.3769 22.6913 18.1915 22.7593 17.9567 22.8118C18.1452 22.8767 18.2811 22.9354 18.3646 23.0003C18.4233 23.0435 18.5067 23.1331 18.6148 23.2691C18.723 23.405 18.7971 23.5132 18.8342 23.5873L19.6005 25.0612H17.8207L16.9803 23.507C16.8722 23.3062 16.7795 23.1733 16.6961 23.1146C16.5817 23.0373 16.452 22.9972 16.3098 22.9972H16.1708V25.0612H14.5888V25.0581ZM20.1443 33.9351H17.2028L16.7795 35.3193H14.1284L17.2893 26.9181H20.1319L23.2804 35.3193H20.5614L20.1443 33.9351ZM19.5943 32.1152L18.6766 29.0934L17.7559 32.1152H19.5943ZM23.8922 26.9181H28.2118C29.1542 26.9181 29.8586 27.1406 30.3252 27.5886C30.7918 28.0367 31.0266 28.6762 31.0266 29.5012C31.0266 30.3509 30.7701 31.0152 30.2603 31.4942C29.7505 31.9731 28.9688 32.211 27.9213 32.211H26.4969V35.3193H23.8922V26.9181ZM26.4969 30.5085H27.1365C27.6402 30.5085 27.9955 30.422 28.1994 30.2459C28.4033 30.0728 28.5053 29.8473 28.5053 29.5785C28.5053 29.3158 28.4157 29.0903 28.2396 28.908C28.0635 28.7257 27.7298 28.633 27.2416 28.633H26.4969V30.5085ZM32.0771 26.9181H34.6818V35.3193H32.0771V26.9181ZM16.1708 22.0301H16.8351C16.9062 22.0301 17.0452 22.0054 17.2522 21.959C17.3573 21.9374 17.4438 21.8848 17.5087 21.7983C17.5767 21.7118 17.6076 21.6129 17.6076 21.5017C17.6076 21.338 17.555 21.2082 17.45 21.1217C17.3449 21.0321 17.1503 20.9888 16.8629 20.9888H16.1708V22.0301ZM19.9033 19.9599H24.1209V21.0475H21.4853V21.8601H23.9293V22.8983H21.4853V23.9025H24.1981V25.055H19.9033V19.9599ZM24.572 23.371L26.0674 23.2784C26.0983 23.5224 26.1663 23.7047 26.2652 23.8314C26.429 24.0354 26.6607 24.1404 26.9604 24.1404C27.1829 24.1404 27.359 24.0879 27.4795 23.9828C27.6 23.8778 27.6618 23.7542 27.6618 23.6151C27.6618 23.4823 27.6031 23.3649 27.4888 23.2598C27.3744 23.1548 27.1056 23.059 26.6823 22.9632C25.9933 22.8087 25.502 22.6017 25.2054 22.3452C24.9088 22.0888 24.7605 21.7613 24.7605 21.3627C24.7605 21.1 24.8377 20.8529 24.9891 20.6211C25.1405 20.3894 25.3691 20.204 25.675 20.0711C25.9809 19.9383 26.3981 19.8734 26.9295 19.8734C27.5814 19.8734 28.0758 19.9939 28.4188 20.238C28.7587 20.4821 28.9626 20.8652 29.0275 21.3967L27.5475 21.4863C27.5073 21.2545 27.4239 21.0846 27.3003 20.9826C27.1736 20.8776 26.9975 20.825 26.7781 20.825C26.5958 20.825 26.4568 20.8652 26.3641 20.9425C26.2714 21.0197 26.225 21.1155 26.225 21.2267C26.225 21.3071 26.2652 21.3781 26.3393 21.4461C26.4135 21.511 26.5865 21.5759 26.8646 21.6346C27.5536 21.7829 28.048 21.9343 28.3446 22.0857C28.6413 22.2371 28.8606 22.4256 28.9935 22.6511C29.1294 22.8736 29.1974 23.127 29.1974 23.405C29.1974 23.7326 29.1078 24.0323 28.9255 24.3073C28.7463 24.5823 28.4929 24.7924 28.1685 24.9345C27.8441 25.0766 27.4362 25.1477 26.9419 25.1477C26.0767 25.1477 25.4742 24.9808 25.1405 24.6471C24.8068 24.3073 24.6183 23.884 24.572 23.371ZM29.4261 19.9599H34.2184V21.2205H32.6117V25.0581H31.0359V21.2205H29.4261V19.9599ZM24.124 7.86021C23.5585 7.81695 22.9869 7.82313 22.4215 7.87875C20.6819 8.0456 18.9918 8.67901 17.5952 9.76353C15.9792 11.0149 14.7526 12.8873 14.2798 15.3684L14.1315 16.144L13.3591 16.2799C12.6021 16.4128 11.9254 16.5951 11.3322 16.8268C10.7574 17.0493 10.2445 17.3243 9.79652 17.6487C9.4381 17.9083 9.12912 18.1987 8.86648 18.5139C8.05386 19.4872 7.67691 20.7076 7.68618 21.9436C7.69545 23.198 8.1033 24.4648 8.85721 25.5061C9.13839 25.8923 9.46282 26.2477 9.83359 26.5566C10.2106 26.8687 10.6339 27.1283 11.1097 27.3229C11.3785 27.4341 11.6659 27.5268 11.9656 27.601V29.9153C11.3476 29.804 10.7791 29.6372 10.2476 29.4178C9.54624 29.1274 8.92519 28.7535 8.37829 28.2962C7.85921 27.8636 7.40501 27.3723 7.01878 26.8378C5.98987 25.4165 5.43371 23.68 5.42135 21.9497C5.40899 20.2009 5.9528 18.4613 7.12692 17.0524C7.50697 16.5951 7.95499 16.1749 8.4679 15.8041C9.06423 15.3715 9.74708 15.0069 10.5195 14.7072C11.051 14.5002 11.6195 14.3272 12.2189 14.1881C12.8987 11.4876 14.3478 9.40821 16.211 7.96526C17.9536 6.61502 20.0516 5.82712 22.2114 5.6201C23.3453 5.51196 24.4947 5.56139 25.6194 5.7715C25.5947 5.87346 25.5731 5.97543 25.5607 6.08048L25.5576 6.09902C25.536 6.27514 25.5267 6.45126 25.536 6.63047C25.2981 6.72316 25.0756 6.84984 24.8748 7.00433L24.8655 7.01051C24.5658 7.23607 24.3124 7.52651 24.124 7.86021ZM40.4721 13.7926C40.6452 13.9502 40.812 14.114 40.9758 14.2901C41.3064 14.6454 41.6184 15.0471 41.912 15.4951C42.9007 17.0153 43.4074 19.0453 43.3858 21.0321C43.3642 22.9817 42.8389 24.9221 41.7637 26.3496C41.0623 27.2797 40.1631 28.0397 39.0848 28.6423C38.3463 29.0563 37.5152 29.3993 36.6099 29.6773V27.2827C37.0981 27.1004 37.5523 26.8965 37.9694 26.6648C38.782 26.2106 39.4463 25.6575 39.9438 24.9932C40.7162 23.9643 41.0963 22.509 41.1117 21.0166C41.1303 19.4501 40.7471 17.8774 40.0025 16.7341C39.7893 16.4035 39.5545 16.1069 39.3073 15.8412C39.2115 15.7392 39.1157 15.6434 39.0168 15.5507C39.0323 15.3963 39.0385 15.2387 39.0292 15.0811C39.2671 14.9884 39.4896 14.8617 39.6904 14.7072L39.6997 14.701C40.0179 14.457 40.2836 14.148 40.4721 13.7926ZM32.6364 8.27425C34.0608 8.4689 35.0557 9.78207 34.861 11.2065C34.6664 12.6309 33.3532 13.6289 31.9288 13.4342C30.5044 13.2396 29.5064 11.9264 29.7041 10.502C29.9019 9.0776 31.212 8.07959 32.6364 8.27425Z" fill="#4C739F"/>
</svg>
