<svg width="51" height="40" viewBox="0 0 51 40" fill="none" xmlns="http://www.w3.org/2000/svg">
<path d="M41.5412 19.409C41.5412 17.2658 38.8573 15.2347 34.7422 13.9751C35.6919 9.78103 35.2699 6.44421 33.4101 5.37589C32.9814 5.1253 32.4804 5.00659 31.933 5.00659V6.47718C32.2363 6.47718 32.4804 6.53653 32.6847 6.64863C33.5816 7.163 33.9707 9.12158 33.6673 11.6407C33.5949 12.2606 33.4762 12.9134 33.3311 13.5795C32.0384 13.2629 30.6272 13.0189 29.1435 12.8607C28.2533 11.6407 27.33 10.5328 26.4001 9.56341C28.55 7.56527 30.568 6.47057 31.9396 6.47057V5C30.126 5 27.7521 6.29253 25.3517 8.53466C22.9512 6.30571 20.5772 5.02638 18.7638 5.02638V6.49695C20.1288 6.49695 22.1533 7.58506 24.3031 9.57C23.3799 10.5394 22.4566 11.6407 21.5795 12.8607C20.0892 13.0189 18.678 13.2629 17.3855 13.5861C17.2337 12.9266 17.1217 12.2869 17.0425 11.6737C16.7327 9.15455 17.115 7.19597 18.0054 6.67501C18.2031 6.55631 18.4603 6.50356 18.7638 6.50356V5.03297C18.2098 5.03297 17.7086 5.15168 17.2734 5.40227C15.4203 6.47057 15.0049 9.80081 15.961 13.9817C11.8593 15.2479 9.18848 17.2724 9.18848 19.409C9.18848 21.5523 11.8724 23.5834 15.9874 24.8429C15.0378 29.0371 15.4598 32.3738 17.3196 33.4421C17.7482 33.6927 18.2493 33.8114 18.8033 33.8114C20.6168 33.8114 22.9909 32.5189 25.3912 30.2768C27.7916 32.5058 30.1657 33.7851 31.9791 33.7851C32.533 33.7851 33.0342 33.6664 33.4695 33.4157C35.3225 32.3474 35.738 29.0172 34.7818 24.8364C38.8704 23.5768 41.5412 21.5457 41.5412 19.409ZM32.9552 15.0105C32.7111 15.8612 32.4078 16.7382 32.0648 17.6153C31.7945 17.0878 31.511 16.5602 31.201 16.0326C30.8977 15.5051 30.5744 14.9907 30.2514 14.4895C31.1877 14.628 32.0912 14.7995 32.9552 15.0105ZM29.9348 22.0336C29.4204 22.924 28.893 23.768 28.3456 24.5528C27.3629 24.6385 26.3673 24.6846 25.3648 24.6846C24.369 24.6846 23.3732 24.6385 22.3973 24.5593C21.85 23.7745 21.3157 22.9371 20.8014 22.0534C20.3002 21.1895 19.8453 20.3125 19.4297 19.4289C19.8386 18.5451 20.3002 17.6614 20.7949 16.7976C21.3092 15.9074 21.8367 15.0632 22.3841 14.2785C23.3667 14.1928 24.3624 14.1466 25.3648 14.1466C26.3606 14.1466 27.3564 14.1928 28.3323 14.2719C28.8797 15.0566 29.4139 15.8941 29.9283 16.7778C30.4295 17.6417 30.8844 18.5188 31.2999 19.4025C30.8844 20.2861 30.4295 21.1698 29.9348 22.0336ZM32.0648 21.1764C32.411 22.0358 32.7147 22.9117 32.9749 23.8009C32.111 24.0119 31.201 24.1901 30.258 24.3285C30.5811 23.8208 30.9042 23.2998 31.2076 22.7656C31.511 22.2381 31.7945 21.7039 32.0648 21.1764ZM25.378 28.2128C24.7647 27.5796 24.1514 26.874 23.5447 26.1025C24.1383 26.1289 24.7449 26.1486 25.3582 26.1486C25.9781 26.1486 26.5914 26.1355 27.1916 26.1025C26.6255 26.8381 26.0201 27.5425 25.378 28.2128ZM20.4717 24.3285C19.5353 24.1901 18.6318 24.0186 17.768 23.8076C18.0119 22.9569 18.3154 22.0798 18.6582 21.2027C18.9286 21.7303 19.2122 22.2579 19.522 22.7854C19.832 23.313 20.1486 23.8273 20.4717 24.3285ZM25.3451 10.6053C25.9584 11.2384 26.5716 11.944 27.1783 12.7156C26.5848 12.6892 25.9781 12.6694 25.3648 12.6694C24.7449 12.6694 24.1316 12.6826 23.5316 12.7156C24.0976 11.98 24.703 11.2756 25.3451 10.6053ZM20.465 14.4895C20.1419 14.9973 19.8189 15.5183 19.5155 16.0523C19.2122 16.58 18.9286 17.1076 18.6582 17.635C18.312 16.7756 18.0083 15.8997 17.7482 15.0105C18.612 14.8061 19.522 14.628 20.465 14.4895ZM14.497 22.7458C12.1626 21.75 10.6525 20.4444 10.6525 19.409C10.6525 18.3737 12.1626 17.0614 14.497 16.0722C15.0642 15.8282 15.6841 15.6106 16.3238 15.4062C16.6996 16.6987 17.1942 18.0439 17.8075 19.4222C17.2009 20.7939 16.7128 22.1326 16.3435 23.4186C15.6907 23.214 15.0708 22.9899 14.497 22.7458ZM18.0449 32.1694C17.1481 31.6551 16.7589 29.6965 17.0624 27.1773C17.1349 26.5575 17.2535 25.9046 17.3986 25.2385C18.6912 25.5551 20.1024 25.7991 21.5862 25.9574C22.4764 27.1773 23.3996 28.2852 24.3295 29.2546C22.1797 31.2528 20.1617 32.3474 18.79 32.3474C18.4933 32.3409 18.2428 32.2815 18.0449 32.1694ZM33.6872 27.1444C33.997 29.6635 33.6146 31.622 32.7243 32.143C32.5265 32.2617 32.2693 32.3145 31.9659 32.3145C30.6008 32.3145 28.5764 31.2264 26.4265 29.2414C27.3498 28.272 28.273 27.1708 29.1501 25.9507C30.6405 25.7925 32.0517 25.5485 33.3442 25.2254C33.4959 25.8915 33.6146 26.5311 33.6872 27.1444ZM36.226 22.7458C35.6589 22.9899 35.0389 23.2075 34.3993 23.4119C34.0234 22.1194 33.5288 20.7742 32.9155 19.3958C33.5223 18.0242 34.0103 16.6855 34.3795 15.3995C35.0324 15.604 35.6522 15.8282 36.2326 16.0722C38.5671 17.0679 40.0772 18.3737 40.0772 19.409C40.0706 20.4444 38.5604 21.7567 36.226 22.7458Z" fill="#4C729F"/>
<path d="M25.3581 22.4229C27.0226 22.4229 28.3719 21.0737 28.3719 19.4091C28.3719 17.7448 27.0226 16.3955 25.3581 16.3955C23.6937 16.3955 22.3445 17.7448 22.3445 19.4091C22.3445 21.0737 23.6937 22.4229 25.3581 22.4229Z" fill="#4C729F"/>
</svg>
