<svg width="19" height="40" viewBox="0 0 19 40" fill="none" xmlns="http://www.w3.org/2000/svg">
<g clip-path="url(#clip0_372_6575)">
<path d="M17.9754 15.6659C15.9138 6.57115 11.6169 4.15 10.5208 2.43851C10.0688 1.68455 9.66836 0.900846 9.3223 0.0927734C9.26439 0.900719 9.15802 1.40972 8.47126 2.02242C7.09237 3.25184 1.23611 8.0241 0.743266 18.3577C0.284084 27.9925 7.82625 33.9336 8.82272 34.5476C9.58892 34.9246 10.5221 34.5557 10.9772 34.2096C14.613 31.7144 19.5805 25.0623 17.9794 15.6659" fill="#4C729F"/>
<path d="M9.63436 29.4175C9.44449 31.8023 9.30849 33.1879 8.82642 34.5506C8.82642 34.5506 9.14286 36.8209 9.36505 39.2259H10.1514C10.339 37.5324 10.6254 35.8512 11.0092 34.1911C9.9912 33.6902 9.67341 31.5101 9.63436 29.4175Z" fill="#4C739F"/>
<path d="M11.0083 34.192C9.9795 33.7167 9.68191 31.4908 9.63612 29.4171C9.89054 25.9963 9.96471 22.5645 9.85831 19.136C9.80444 17.3369 9.88389 2.47343 9.41528 0.297363C9.73584 1.03437 10.1052 1.7492 10.5208 2.43707C11.6169 4.14992 15.9152 6.57106 17.9755 15.6658C19.5806 25.0461 14.64 31.6806 11.0083 34.192Z" fill="#102640"/>
</g>
<defs>
<clipPath id="clip0_372_6575">
<rect width="17.6401" height="39.32" fill="white" transform="translate(0.679932)"/>
</clipPath>
</defs>
</svg>
