<svg width="56" height="45" viewBox="0 0 56 45" fill="none" xmlns="http://www.w3.org/2000/svg">
<path fill-rule="evenodd" clip-rule="evenodd" d="M6.83311 21.8154C6.82459 23.4348 8.01208 24.4003 9.90707 23.9613V19.6694C7.98813 19.085 6.84113 20.2673 6.83311 21.8154ZM9.96504 13.4635H12.575V25.8173C10.0733 26.2263 7.67723 26.4857 5.96312 25.5272C3.75606 24.2933 3.57863 20.3719 5.32508 18.6254C6.21056 17.74 7.99319 17.1166 9.90707 17.5234V13.6375C9.90207 13.5551 9.89744 13.4732 9.96504 13.4635Z" fill="#4C729F"/>
<path fill-rule="evenodd" clip-rule="evenodd" d="M16.8089 16.1894H14.199V13.4634H16.8089V16.1894Z" fill="#4C729F"/>
<path fill-rule="evenodd" clip-rule="evenodd" d="M48.1283 24.0773C50.9735 25.183 51.2883 18.9845 48.4183 19.5533C46.636 19.9066 46.6932 23.5196 48.1283 24.0773ZM48.2443 17.4074C50.4171 17.1751 52.0563 18.1339 52.7102 19.6114C53.8261 22.1322 52.6489 25.0248 50.8543 25.8753C49.9242 26.3161 48.9502 26.358 48.0703 26.2812C45.3506 26.0441 43.6353 23.2724 44.5903 20.1913C44.7398 19.7091 44.9077 19.4141 44.9964 19.2633C45.5876 18.2582 46.5857 17.5847 48.2443 17.4074Z" fill="#4C729F"/>
<path fill-rule="evenodd" clip-rule="evenodd" d="M20.405 23.0913C19.6831 24.3045 21.4968 24.5951 22.6668 24.2513V22.4533C21.7678 22.5788 20.7446 22.5204 20.405 23.0913ZM24.9868 25.9333C22.8309 26.0573 19.5544 26.7917 18.375 25.3533C17.682 24.5081 17.7565 22.8961 18.375 22.1053C19.1741 21.0835 20.9187 20.8606 22.4929 20.7133C22.6358 20.3615 22.5394 19.7889 22.3769 19.5533C20.9369 19.1865 19.5063 19.7548 18.491 20.1913V18.1614C20.0244 17.4568 23.5762 16.715 24.6389 18.3353C25.197 19.1864 24.9868 20.6706 24.9868 21.9892V25.9333Z" fill="#4C729F"/>
<path fill-rule="evenodd" clip-rule="evenodd" d="M34.1507 26.0493H31.5408V22.6853C31.5408 21.5777 31.7199 20.1733 31.1347 19.7274C30.6763 19.378 29.589 19.5533 28.9308 19.7274V26.0493H26.3208V17.9874C28.9888 17.2944 33.8048 16.5513 34.1507 19.9014C34.3213 21.553 34.0243 24.0311 34.1507 26.0493Z" fill="#4C729F"/>
<path fill-rule="evenodd" clip-rule="evenodd" d="M38.0367 23.2653C38.4759 23.9759 39.6652 24.2423 40.6466 23.7873C40.5927 22.4299 40.5739 21.0374 40.5886 19.6113C38.333 19.0154 36.9888 21.5703 38.0367 23.2653ZM44.5906 17.7554C44.3583 18.4511 44.0183 19.039 43.7206 19.6694C43.4516 19.7297 43.2185 19.5625 43.0826 19.6694C43.0231 22.4966 43.6847 26.3293 42.5606 28.3692C41.8838 29.5974 40.6377 30.3853 38.7326 30.5152C37.3449 30.6099 36.2678 30.3831 35.2527 29.9932V27.5573C36.4433 28.2524 39.4517 28.8191 40.2986 27.3832C40.5478 26.9608 40.532 26.5241 40.6466 25.8753C40.1013 25.9039 39.572 26.1564 38.9067 26.1653C36.1713 26.2016 34.4791 24.0236 35.1367 21.0033C35.3911 19.835 36.0756 18.8943 36.9927 18.3354C38.8975 17.1744 41.8255 17.2626 44.5906 17.7554Z" fill="#4C729F"/>
<path fill-rule="evenodd" clip-rule="evenodd" d="M16.8088 17.5697C16.8058 19.4916 16.8062 20.8727 16.8061 23.2075C16.6952 25.5021 16.721 27.3293 15.8808 28.4272C15.7151 28.6437 15.3632 28.9595 15.0688 29.1812C14.8216 29.3674 14.3503 29.7448 14.0828 29.7612C13.8132 29.7778 13.1204 29.3869 12.8068 29.2392C12.3951 29.0453 12.0145 28.7878 11.5889 28.6593C12.5816 28.0441 13.524 27.5828 13.9088 26.3393C14.2434 25.2578 14.1988 23.6906 14.1988 22.1633C14.1988 20.6552 14.2055 18.9019 14.2055 17.5704L16.8088 17.5697Z" fill="#4C729F"/>
</svg>