<svg width="41" height="40" viewBox="0 0 41 40" fill="none" xmlns="http://www.w3.org/2000/svg">
<path d="M15.0502 10.2674C15.0502 10.2674 13.9155 10.9662 13.9155 12.3616C13.9155 13.7591 13.9155 19.3362 13.9155 19.3362C13.9155 19.3362 13.9155 20.7337 12.7808 20.035C11.6461 19.3362 11.6461 17.9408 11.6461 17.9408C11.6461 17.9408 11.6461 12.3616 11.6461 10.9662C11.6461 10.8791 11.6502 10.7942 11.6584 10.7115C11.7829 9.48377 12.7788 8.8699 12.7788 8.8699L10.5115 7.47454C10.5115 7.47454 10.5094 7.47454 10.5074 7.47671C10.44 7.51807 9.37678 8.21684 9.37678 9.56867C9.37678 10.9662 9.37678 16.5433 9.37678 16.5433C9.37678 16.5433 9.37678 17.9408 8.24209 17.2421C7.10741 16.5433 7.10741 15.1479 7.10741 15.1479C7.10741 15.1479 7.10741 9.56867 7.10741 8.17331C7.10741 6.77795 8.24209 6.07918 8.24209 6.07918L5.97477 4.68164C5.97477 4.68164 4.84009 5.38041 4.84009 6.77577C4.84009 8.17331 4.84009 13.7504 4.84009 13.7504C4.84009 13.7504 4.84009 17.9408 8.24209 20.035C9.28494 20.6771 10.0074 20.7272 10.5094 20.4899C11.0115 21.3454 11.7339 22.1857 12.7767 22.8279C16.1787 24.922 16.1787 20.7337 16.1787 20.7337C16.1787 20.7337 16.1787 15.1545 16.1787 13.7591C16.1787 12.3616 17.3134 11.665 17.3134 11.665C16.9646 11.197 16.6545 10.8792 16.383 10.7115C16.1516 10.5686 15.7073 10.4206 15.0502 10.2674Z" fill="#4C739F"/>
<path d="M27.5219 22.1354C27.5219 17.9994 30.9239 20.0413 30.9239 20.0413L35.4585 22.8342V25.6271L30.9239 22.8342C30.9239 22.8342 30.9096 22.8254 30.8842 22.8117L30.8693 22.8038C30.6428 22.6857 29.7892 22.3211 29.7892 23.5351C29.7892 24.9305 30.9239 25.6293 30.9239 25.6293L33.1912 27.0246C33.1912 27.0246 35.4585 28.4222 35.4585 32.6104C35.4585 36.7987 32.0565 34.7045 32.0565 34.7045L27.5219 31.9116V29.1187L32.0586 31.9116C32.0586 31.9116 33.1932 32.6104 33.1932 31.2129C33.1932 29.8175 32.0586 29.1187 32.0586 29.1187L30.9239 28.42C30.8562 28.3768 27.5219 26.2301 27.5219 22.1354ZM24.1199 15.853C24.7979 15.9361 25.2576 16.0521 25.4989 16.2008C25.7614 16.3626 26.0575 16.7126 26.3872 17.2506C26.3872 17.2506 25.2525 17.9493 25.2525 19.3447L25.2524 26.3303C25.2494 26.565 25.1504 30.4447 21.8505 28.4134C18.5505 26.3821 18.4515 22.3784 18.4486 22.14L18.4485 22.1289L20.7158 23.5264L20.7159 23.5311C20.7171 23.6197 20.7541 24.9453 21.8505 25.6205C22.9504 26.2979 22.9841 25.0054 22.9851 24.9256L22.9852 17.9472C22.9852 16.5518 24.1199 15.853 24.1199 15.853ZM18.4526 16.567L20.7199 17.9624V20.7553L18.4526 19.3599V16.567Z" fill="#4C739F"/>
<path d="M30.9234 10.2672C29.8785 9.62284 28.9417 9.30938 28.1438 9.18312C27.9356 8.69768 27.4254 8.12735 26.3887 7.49606C22.9867 5.4237 19.5867 7.47429 19.5867 7.47429L15.05 10.2672L17.3174 11.6626L21.852 8.86965C21.852 8.86965 22.9867 8.17089 24.1193 8.86965C25.254 9.56842 24.1193 10.2672 24.1193 10.2672L19.5847 13.0601L21.852 14.4554L26.3907 11.6604C26.4581 11.619 27.556 10.9856 28.654 11.6626C29.7887 12.3613 28.654 13.0579 28.654 13.0579L24.1193 15.8508L26.3867 17.2483L32.056 13.7567C32.056 13.7567 34.3233 12.3613 30.9234 10.2672Z" fill="#4C739F"/>
</svg>
