<svg width="37" height="39" viewBox="0 0 37 39" fill="none" xmlns="http://www.w3.org/2000/svg">
<path d="M30.0325 4H7.79C6.24 4 5 5.24 5 6.79V32.21C5 33.76 6.24 35 7.79 35H30.0325C31.5825 35 32.8225 33.76 32.8225 32.21V6.79C32.8225 5.24 31.5825 4 30.0325 4ZM31.2725 32.21C31.2725 32.9075 30.73 33.45 30.0325 33.45H7.79C7.0925 33.45 6.55 32.9075 6.55 32.21V6.79C6.55 6.0925 7.0925 5.55 7.79 5.55H30.0325C30.73 5.55 31.2725 6.0925 31.2725 6.79V32.21ZM11.975 30.35L15.4625 27.25L11.975 24.15V30.35ZM24.53 17.795C23.91 17.175 22.7475 16.4 20.81 16.4C18.7175 16.4 16.5475 16.9425 14.9975 17.485V8.65H11.8975V22.0575L14.0675 21.05C14.0675 21.05 17.6325 19.4225 20.7325 19.4225C22.2825 19.4225 22.67 20.275 22.67 21.05V30.35H25.77V21.05C25.8475 20.8175 25.8475 19.1125 24.53 17.795ZM20.4225 13.6875H23.5225C24.9175 12.06 25.615 10.4325 25.8475 8.65H22.7475C22.4375 10.4325 21.6625 12.06 20.4225 13.6875Z" fill="#4C739F"/>
</svg>
