<svg width="41" height="40" viewBox="0 0 41 40" fill="none" xmlns="http://www.w3.org/2000/svg">
<path d="M13.2395 25.7541L6.0085 21.0401C5.62514 20.7897 5.38824 20.3253 5.38824 19.8269V10.3988C5.38824 9.9004 5.62514 9.43605 6.0085 9.18563L13.2395 4.47156C13.6228 4.22116 14.0987 4.22359 14.4799 4.47156L21.711 9.18563C22.0942 9.43605 22.3311 9.9004 22.3311 10.3988V27.2469L27.4024 30.5509L32.4736 27.2469V20.6366L27.4024 17.3326L24.0581 19.5132V15.0788L26.7822 13.3016C26.9696 13.1801 27.1848 13.1144 27.4024 13.1144C27.6199 13.1144 27.8351 13.1801 28.0225 13.3016L35.2536 18.0157C35.6369 18.2661 35.8738 18.7305 35.8738 19.2289V28.657C35.8738 29.1554 35.6369 29.6197 35.2536 29.8701L28.0225 34.5842C27.6393 34.8322 27.1655 34.8322 26.7822 34.5842L19.5511 29.8701C19.1678 29.6197 18.931 29.1554 18.931 28.657V11.8064L18.8405 11.7481L13.8618 8.50247L8.79058 11.8064V18.4169L13.8618 21.7208L17.2018 19.5449V23.9794L14.4821 25.7518C14.0987 25.9997 13.6228 25.9997 13.2417 25.7518L13.2395 25.7541Z" fill="#4C739F"/>
</svg>
