<svg width="41" height="40" viewBox="0 0 41 40" fill="none" xmlns="http://www.w3.org/2000/svg">
<path fill-rule="evenodd" clip-rule="evenodd" d="M10.9228 6.31982H29.4494C30.1049 6.31982 30.7598 6.41609 31.4443 6.7352C32.2648 7.11754 32.6999 7.72049 33.0047 8.16631C33.0284 8.20099 33.0506 8.23673 33.0711 8.2733C33.4295 8.91129 33.6143 9.60012 33.6143 10.3411C33.6143 11.0451 33.4467 11.8122 33.0711 12.4807C33.0676 12.4871 33.0639 12.4935 33.0603 12.4998L21.3554 32.6062C21.0973 33.0495 20.6222 33.3216 20.1092 33.3198C19.5961 33.3179 19.1229 33.0426 18.868 32.5974L7.37809 12.5338C7.37478 12.5285 7.37148 12.523 7.36818 12.5175C7.10522 12.0842 6.69858 11.4142 6.62744 10.5493C6.56208 9.75419 6.74081 8.95742 7.14038 8.26658C7.53994 7.57562 8.14148 7.02328 8.865 6.68518C9.64077 6.32266 10.4269 6.31982 10.9228 6.31982ZM18.6781 9.19218H10.9228C10.4132 9.19218 10.2177 9.22356 10.0809 9.2875C9.89181 9.37574 9.73303 9.52085 9.62685 9.70453C9.52068 9.88821 9.47266 10.101 9.49012 10.314C9.50015 10.4362 9.54994 10.5759 9.84357 11.0601C9.8497 11.0703 9.85572 11.0805 9.86161 11.0908L18.6781 26.4859V9.19218ZM21.5504 9.19218V26.562L30.5711 11.0664C30.6729 10.8814 30.7419 10.6141 30.7419 10.3411C30.7419 10.1197 30.696 9.92737 30.5934 9.72906C30.4857 9.57429 30.4201 9.4923 30.3652 9.43614C30.3181 9.38813 30.2819 9.36241 30.2307 9.33858C30.0174 9.23913 29.7992 9.19218 29.4494 9.19218H21.5504Z" fill="#4C739F"/>
</svg>
