<svg width="206" height="77" viewBox="0 0 206 77" fill="none" xmlns="http://www.w3.org/2000/svg">
<g clip-path="url(#clip0_651_1711)">
<path d="M15.5 23.2909C15.1 23.2909 15 23.0901 15.2 22.7889L17.3 20.0783C17.5 19.7772 18 19.5764 18.4 19.5764H54.1C54.5 19.5764 54.6 19.8776 54.4 20.1787L52.7 22.7889C52.5 23.0901 52 23.3912 51.7 23.3912L15.5 23.2909Z" fill="#50719C"/>
<path d="M0.4 32.5268C0 32.5268 -0.1 32.326 0.1 32.0248L2.2 29.3143C2.4 29.0131 2.9 28.8123 3.3 28.8123H48.9C49.3 28.8123 49.5 29.1135 49.4 29.4147L48.6 31.824C48.5 32.2256 48.1 32.4264 47.7 32.4264L0.4 32.5268Z" fill="#50719C"/>
<path d="M24.6 41.7628C24.2 41.7628 24.1 41.4616 24.3 41.1604L25.7 38.6507C25.9 38.3495 26.3 38.0483 26.7 38.0483H46.7C47.1 38.0483 47.3 38.3495 47.3 38.751L47.1 41.1604C47.1 41.562 46.7 41.8632 46.4 41.8632L24.6 41.7628Z" fill="#50719C"/>
<path d="M128.4 21.4838C122.1 23.0901 117.8 24.2947 111.6 25.901C110.1 26.3026 110 26.403 108.7 24.8971C107.2 23.1904 106.1 22.0861 104 21.0822C97.7 17.9701 91.6 18.8736 85.9 22.5881C79.1 27.0053 75.6 33.5307 75.7 41.6624C75.8 49.6937 81.3 56.3195 89.2 57.4238C96 58.3273 101.7 55.9179 106.2 50.798C107.1 49.6937 107.9 48.489 108.9 47.0835C105.3 47.0835 100.8 47.0835 89.6 47.0835C87.5 47.0835 87 45.7784 87.7 44.0718C89 40.9596 91.4 35.7393 92.8 33.1292C93.1 32.5268 93.8 31.5229 95.3 31.5229C100.4 31.5229 119.2 31.5229 131.7 31.5229C131.5 34.2334 131.5 36.944 131.1 39.6546C130 46.8827 127.3 53.5085 122.9 59.3312C115.7 68.8683 106.3 74.7914 94.4 76.3977C84.6 77.7027 75.5 75.7953 67.5 69.7719C60.1 64.15 55.9 56.721 54.8 47.4851C53.5 36.5424 56.7 26.7041 63.3 18.0705C70.4 8.73414 79.8 2.81108 91.3 0.702866C100.7 -1.00378 109.7 0.100519 117.8 5.62202C123.1 9.13571 126.9 13.9545 129.4 19.7772C130 20.6807 129.6 21.1826 128.4 21.4838Z" fill="#50719C"/>
<path d="M161.5 77C152.4 76.7992 144.1 74.1891 137.1 68.1656C131.2 63.0457 127.5 56.5203 126.3 48.7902C124.5 37.446 127.6 27.4069 134.4 18.4721C141.7 8.83455 150.5 3.81501 162.4 1.7068C172.6 -0.10024 182.2 0.90367 190.9 6.82674C198.8 12.2478 203.7 19.5764 205 29.2139C206.7 42.7667 202.8 53.8097 193.5 63.2465C186.9 69.9726 178.8 74.1891 169.5 76.0965C166.8 76.5985 164.1 76.6988 161.5 77ZM185.3 36.4421C185.2 35.137 185.2 34.1331 185 33.1292C183.2 23.1905 174.1 17.5686 164.6 19.7772C155.3 21.8854 149.3 27.8084 147.1 37.2452C145.3 45.0757 149.1 53.0066 156.3 56.2191C161.8 58.6285 167.3 58.3273 172.6 55.6167C180.5 51.5007 184.8 45.0757 185.3 36.4421Z" fill="#50719C"/>
</g>
<defs>
<clipPath id="clip0_651_1711">
<rect width="205.4" height="76.7" fill="white"/>
</clipPath>
</defs>
</svg>
