<svg width="73" height="39" viewBox="0 0 73 39" fill="none" xmlns="http://www.w3.org/2000/svg">
<path d="M41.8291 15.5918H46.4329V29.0492H41.8291V15.5918Z" fill="#4C739F"/>
<path d="M35.5077 14.5795C33.7376 14.5795 31.9276 15.0033 31.477 15.792C31.4709 15.802 31.465 15.8112 31.4592 15.8215V10.1753H26.7322V19.1326V19.148C27.2024 19.3633 27.6846 19.6094 28.1725 19.8875C28.3375 19.9822 28.4771 20.0648 28.5801 20.1267C28.6448 20.1656 28.7094 20.2046 28.7739 20.2448C28.7805 20.2489 26.072 24.4666 22.3833 25.3523C20.204 25.8759 17.6296 25.242 17.108 23.0558C17.0862 22.9651 17.0742 22.8742 17.0601 22.7834C17.4076 22.5765 17.763 22.3866 18.1203 22.2105C19.0231 21.8171 19.712 21.5223 19.9727 21.4222C19.9956 21.4138 20.0187 21.405 20.0414 21.3966L20.0427 21.3965L20.0435 21.3959C22.1958 20.6154 24.0024 20.346 24.0024 20.346C22.3617 20.2041 20.9529 20.3184 19.774 20.5519L19.7724 20.5511C19.7724 20.5511 19.7635 20.5532 19.7476 20.5573C18.6801 20.771 17.802 21.082 17.1202 21.3922C17.5 19.8166 18.8711 18.4476 20.4937 18.0577C20.6362 18.0234 20.7808 17.997 20.9257 17.9743C20.9674 17.9679 21.009 17.9623 21.0508 17.9568C21.1634 17.9414 21.2767 17.9295 21.3907 17.9203C21.427 17.9175 21.4636 17.9136 21.5001 17.9116C21.6459 17.9024 21.792 17.8978 21.9388 17.8984C21.9676 17.8986 21.9963 17.9002 22.0251 17.9004C22.1468 17.9021 22.2685 17.9069 22.3903 17.9146C22.4333 17.9173 22.4762 17.9201 22.519 17.9236C22.5617 17.927 22.6044 17.931 22.647 17.935C23.3456 18.0072 24.2038 18.1947 25.1552 18.518V15.4215C24.6962 15.2795 24.209 15.142 23.7033 15.0176C22.3703 14.6624 20.0811 14.2844 17.5776 14.8942C13.551 15.8755 12.409 18.8546 12.409 22.4949C12.409 22.9587 12.4458 23.3928 12.513 23.801C11.6389 24.38 10.7803 25.0449 10 25.8037C10 25.8037 11.1614 25.2858 12.6954 24.6042C13.7194 28.1005 17.2913 29.2767 19.981 29.2767C22.7861 29.2767 24.5868 28.4759 26.7322 27.1373V28.8328H31.4592V20.4224C31.465 20.4114 31.4709 20.4006 31.477 20.3893V20.2464C31.9267 19.0444 32.6916 18.7342 33.5417 18.7342C34.6653 18.7342 35.3673 19.5321 35.3673 20.8001V28.8328H40.0943V19.4386C40.0943 16.481 38.2455 14.5795 35.5077 14.5795Z" fill="#4C739F"/>
<path d="M44.0556 9C42.6283 9 41.6218 10.0093 41.6218 11.4412C41.6218 12.873 42.6283 13.8822 44.0556 13.8822C45.4829 13.8822 46.4895 12.873 46.4895 11.4412C46.4895 10.0093 45.4829 9 44.0556 9Z" fill="#4C739F"/>
<path d="M62.1525 21.2116H62.1583L62.1532 15.2169H57.4205L57.3948 16.069C52.8297 13.128 49.9155 16.1526 49.9155 16.1526C48.5217 17.429 47.7129 19.4444 47.7129 21.9748C47.7129 26.4611 50.4014 29.1298 53.8965 29.1298C55.2064 29.1298 56.4132 28.833 57.4553 27.3882C57.576 27.725 57.8449 28.5498 58.0376 28.833H62.9623C62.1182 27.443 62.1251 22.623 62.1525 21.2116ZM55 25.2433C53.4672 25.2433 52.3864 23.909 52.3864 22.016C52.3864 20.1231 53.4672 18.7886 55 18.7886C56.0749 18.7886 56.9269 19.4454 57.3403 20.4904V23.5414C56.927 24.5864 56.0749 25.2433 55 25.2433Z" fill="#4C739F"/>
</svg>
