<svg width="49" height="40" viewBox="0 0 49 40" fill="none" xmlns="http://www.w3.org/2000/svg">
<path d="M35.0376 23.8097L25.1336 6.99494C25.0857 6.91191 25.0162 6.84275 24.9322 6.79443C24.8483 6.74611 24.7529 6.72035 24.6556 6.71974C24.5582 6.71913 24.4625 6.74369 24.378 6.79096C24.2934 6.83822 24.223 6.9065 24.174 6.98893L21.2079 12.0273C21.1107 12.1923 21.0596 12.3794 21.0596 12.5698C21.0596 12.7603 21.1107 12.9473 21.2079 13.1123L27.666 24.0817C27.7632 24.2468 27.9031 24.3839 28.0716 24.479C28.24 24.5744 28.4311 24.6243 28.6256 24.6242H34.558C34.655 24.6239 34.7503 24.5987 34.8344 24.5509C34.9184 24.5032 34.9882 24.4346 35.0368 24.3522C35.0854 24.2698 35.1109 24.1763 35.1112 24.081C35.1113 23.9858 35.086 23.8923 35.0376 23.8097Z" fill="#4C739F"/>
<path d="M9.07637 32.5979L18.9804 15.7831C19.029 15.7007 19.0989 15.6323 19.183 15.5848C19.2671 15.5372 19.3624 15.5122 19.4595 15.5122C19.5565 15.5122 19.6519 15.5372 19.736 15.5848C19.8201 15.6323 19.8899 15.7007 19.9385 15.7831L22.9062 20.817C23.0033 20.9822 23.0544 21.1695 23.0544 21.3603C23.0544 21.5509 23.0033 21.7382 22.9062 21.9034L16.4481 32.8728C16.3512 33.0379 16.2116 33.175 16.0434 33.2703C15.8752 33.3655 15.6843 33.4155 15.49 33.4153H9.55617C9.45842 33.4158 9.36229 33.3908 9.27754 33.343C9.1928 33.2954 9.12248 33.2264 9.07373 33.1434C9.02498 33.0603 8.99954 32.9661 9.00001 32.8702C9.00047 32.7744 9.02682 32.6804 9.07637 32.5979Z" fill="#4C739F"/>
<path d="M19.9366 33.4114H39.7447C39.8419 33.4114 39.9373 33.3861 40.0215 33.3385C40.1056 33.2907 40.1754 33.2221 40.2238 33.1395C40.2723 33.0571 40.2978 32.9634 40.2977 32.8682C40.2975 32.7729 40.2717 32.6793 40.223 32.5969L37.26 27.5601C37.1626 27.3949 37.0228 27.2579 36.8544 27.1627C36.6859 27.0674 36.4948 27.0174 36.3004 27.0176H23.3841C23.1897 27.0174 22.9985 27.0674 22.8302 27.1627C22.6617 27.2579 22.5217 27.3949 22.4245 27.5601L19.4584 32.5969C19.4097 32.6793 19.3839 32.7729 19.3838 32.8682C19.3837 32.9634 19.4091 33.0571 19.4576 33.1395C19.506 33.2221 19.5759 33.2907 19.6599 33.3385C19.744 33.3861 19.8395 33.4114 19.9366 33.4114Z" fill="#4C739F"/>
</svg>
