<svg width="65" height="40" viewBox="0 0 65 40" fill="none" xmlns="http://www.w3.org/2000/svg">
<path d="M32.2158 34.3201C32.0525 34.3201 31.8902 34.2772 31.7469 34.1948L30.2544 33.3111C30.0314 33.1864 30.1402 33.1424 30.2138 33.1169C30.511 33.0129 30.5713 32.9894 30.8886 32.8092C30.9219 32.7902 30.9656 32.7969 30.9997 32.817L32.1464 33.4975C32.1878 33.5198 32.2465 33.5198 32.2849 33.4975L36.7558 30.9168C36.7972 30.8933 36.824 30.8451 36.824 30.7959V25.6368C36.824 25.5853 36.7972 25.5394 36.7549 25.5137L32.2858 22.9353C32.2444 22.9106 32.1895 22.9106 32.1481 22.9353L27.68 25.5137C27.6367 25.5383 27.6091 25.5864 27.6091 25.6357V30.7948C27.6091 30.844 27.636 30.891 27.6785 30.9145L28.9028 31.6218C29.5676 31.9542 29.9738 31.5625 29.9738 31.1686V26.0766C29.9738 26.0039 30.0309 25.9479 30.1036 25.9479H30.6699C30.7404 25.9479 30.7986 26.0039 30.7986 26.0766V31.1708C30.7986 32.0571 30.3151 32.5663 29.4747 32.5663C29.2162 32.5663 29.0125 32.5663 28.444 32.2866L27.2712 31.6106C26.9813 31.4428 26.8022 31.1294 26.8022 30.7948V25.6357C26.8022 25.2999 26.9813 24.9866 27.2712 24.821L31.7465 22.2392C32.0296 22.0791 32.4056 22.0791 32.6865 22.2392L37.1563 24.8221C37.445 24.9888 37.6252 25.3011 37.6252 25.6368V30.7959C37.6252 31.1305 37.445 31.4428 37.1563 31.6106L32.6865 34.1924C32.5433 34.2752 32.381 34.3178 32.2154 34.3178" fill="#4C739F"/>
<path d="M33.5963 30.7649C31.6401 30.7649 31.23 29.867 31.23 29.1138C31.23 29.0422 31.2877 28.9851 31.3595 28.9851H31.9369C32.0007 28.9851 32.0544 29.0315 32.0645 29.0945C32.1518 29.683 32.4114 29.9798 33.5943 29.9798C34.5366 29.9798 34.9373 29.7669 34.9373 29.2672C34.9373 28.9796 34.8231 28.7659 33.3593 28.6226C32.135 28.5017 31.3785 28.232 31.3785 27.2528C31.3785 26.3508 32.1395 25.8136 33.4142 25.8136C34.8455 25.8136 35.555 26.3105 35.6445 27.3782C35.6479 27.4151 35.6345 27.4509 35.6099 27.4778C35.5852 27.5035 35.5505 27.5192 35.5147 27.5192H34.9339C34.8735 27.5192 34.8209 27.4766 34.8086 27.4184C34.6687 26.7996 34.3307 26.6015 33.4119 26.6015C32.3835 26.6015 32.2637 26.9596 32.2637 27.2282C32.2637 27.5539 32.4047 27.649 33.7924 27.8325C35.1667 28.0149 35.8191 28.2723 35.8191 29.2381C35.8191 30.2118 35.0067 30.7702 33.5899 30.7702M39.0355 25.2988H39.1854C39.3085 25.2988 39.332 25.2127 39.332 25.1623C39.332 25.0303 39.2414 25.0303 39.191 25.0303H39.0366L39.0355 25.2988ZM38.8531 24.8758H39.1854C39.2996 24.8758 39.5234 24.8758 39.5234 25.131C39.5234 25.3089 39.4092 25.3458 39.341 25.3682C39.4742 25.3772 39.4831 25.4645 39.501 25.5876C39.51 25.6648 39.5245 25.798 39.5514 25.8427H39.3466C39.341 25.798 39.3096 25.5518 39.3096 25.5383C39.2962 25.4835 39.2772 25.4566 39.2089 25.4566H39.0399V25.8439H38.8531V24.8758ZM38.4535 25.357C38.4535 25.7577 38.7769 26.0822 39.1742 26.0822C39.5749 26.0822 39.8983 25.751 39.8983 25.357C39.8983 24.9553 39.5704 24.6363 39.1731 24.6363C38.7814 24.6363 38.4524 24.9508 38.4524 25.3559M40.0371 25.3593C40.0371 25.8338 39.6487 26.221 39.1754 26.221C38.7053 26.221 38.3136 25.8383 38.3136 25.3593C38.3136 24.8713 38.7143 24.4976 39.1754 24.4976C39.6398 24.4976 40.036 24.8725 40.036 25.3593" fill="#4C739F"/>
<path fill-rule="evenodd" clip-rule="evenodd" d="M18.371 14.1336C18.371 13.9276 18.2624 13.7385 18.0847 13.6361L13.3446 10.9088C13.2646 10.8618 13.175 10.8372 13.0841 10.8338H13.0351C12.9442 10.8372 12.8546 10.8618 12.7732 10.9088L8.0333 13.6361C7.8567 13.7391 7.74658 13.9282 7.74658 14.1341L7.75699 21.48C7.75699 21.5818 7.80959 21.6769 7.89912 21.7273C7.98641 21.781 8.09608 21.781 8.18337 21.7273L11.0013 20.1135C11.1792 20.0077 11.2878 19.8206 11.2878 19.6167V16.1849C11.2878 15.9801 11.3963 15.791 11.5737 15.6891L12.7734 14.9982C12.8625 14.9467 12.9603 14.9212 13.0599 14.9212C13.1579 14.9212 13.258 14.9465 13.3446 14.9981L14.5437 15.6888C14.7212 15.7906 14.8302 15.9798 14.8302 16.1846V19.6161C14.8302 19.8198 14.9402 20.0078 15.1173 20.113L17.9334 21.7256C18.0218 21.7782 18.1318 21.7782 18.2199 21.7256C18.3068 21.6753 18.3618 21.5801 18.3618 21.4783L18.371 14.1336ZM40.7385 17.9582C40.7385 18.0094 40.7113 18.0567 40.6669 18.082L39.0388 19.0205C38.9946 19.0459 38.94 19.0459 38.8959 19.0205L37.2676 18.082C37.2228 18.0566 37.1959 18.0093 37.1959 17.9582V16.0786C37.1959 16.0273 37.2228 15.9801 37.2665 15.9544L38.8936 15.0143C38.9384 14.9886 38.9932 14.9886 39.038 15.0143L40.6663 15.9544C40.7111 15.9801 40.7379 16.0273 40.7379 16.0786L40.7385 17.9582ZM41.1783 4.03624C41.0895 3.98677 40.9814 3.98811 40.8936 4.03926C40.8063 4.09074 40.7524 4.18474 40.7524 4.28658V11.5608C40.7524 11.6324 40.7143 11.6985 40.6523 11.7343C40.5908 11.7701 40.5141 11.7701 40.452 11.7343L39.2646 11.0504C39.0878 10.9481 38.87 10.9481 38.6925 11.0504L33.9509 13.787C33.7737 13.8888 33.6644 14.0779 33.6644 14.2816V19.7563C33.6644 19.9611 33.7737 20.1491 33.9509 20.2521L38.6925 22.9906C38.8696 23.0924 39.0876 23.0924 39.2652 22.9906L44.0069 20.251C44.1837 20.148 44.2934 19.96 44.2934 19.7552V6.11096C44.2934 5.90325 44.1803 5.71222 43.999 5.61072L41.1783 4.03624ZM56.9682 16.0291C57.1444 15.9268 57.2528 15.7379 57.2528 15.5342V14.2074C57.2528 14.0033 57.1443 13.8149 56.9678 13.7122L52.2563 10.9771C52.0784 10.8741 51.8601 10.8741 51.6822 10.9771L46.9416 13.7133C46.7637 13.8163 46.6551 14.0043 46.6551 14.2091V19.6816C46.6551 19.8875 46.7659 20.0777 46.9439 20.1796L51.6542 22.8643C51.8277 22.9639 52.0403 22.965 52.216 22.8677L55.0653 21.2841C55.1548 21.2338 55.2119 21.1386 55.2119 21.0357C55.2119 20.9327 55.1571 20.8365 55.0675 20.7861L50.2979 18.0488C50.2083 17.9984 50.1535 17.9033 50.1535 17.8014V16.0847C50.1535 15.9822 50.2072 15.8878 50.2967 15.8367L51.7807 14.9806C51.8691 14.9291 51.9777 14.9291 52.0661 14.9806L53.5511 15.8367C53.6395 15.8871 53.6944 15.9822 53.6944 16.0841V17.4337C53.6944 17.5355 53.7492 17.6307 53.8376 17.6822C53.926 17.7325 54.0357 17.7325 54.1241 17.681L56.9682 16.0291Z" fill="#4C739F"/>
<path fill-rule="evenodd" clip-rule="evenodd" d="M51.9003 15.7732C51.9339 15.7533 51.9759 15.7533 52.01 15.7732L52.9198 16.298C52.9538 16.3177 52.9746 16.354 52.9746 16.3931V17.444C52.9746 17.4832 52.9538 17.5194 52.9198 17.5391L52.01 18.064C51.9759 18.0838 51.9339 18.0838 51.9003 18.064L50.991 17.5391C50.9563 17.5194 50.9351 17.4832 50.9351 17.444V16.3931C50.9351 16.354 50.9552 16.3177 50.9899 16.298L51.9003 15.7732Z" fill="#4C739F"/>
<mask id="mask0_372_6280" style="mask-type:luminance" maskUnits="userSpaceOnUse" x="20" y="10" width="12" height="13">
<path d="M25.7334 11.0043L21.0186 13.7257C20.842 13.8275 20.7336 14.0155 20.7336 14.2188V19.6653C20.7336 19.8686 20.842 20.0565 21.0186 20.1583L25.7337 22.8818C25.91 22.9833 26.1273 22.9833 26.3034 22.8818L31.0177 20.1583C31.1934 20.0565 31.302 19.8685 31.302 19.6653V14.2188C31.302 14.0155 31.1934 13.8275 31.0166 13.7257L26.3029 11.0043C26.2145 10.9536 26.116 10.9282 26.0175 10.9282C25.9191 10.9282 25.8206 10.9536 25.7322 11.0043" fill="white"/>
</mask>
<g mask="url(#mask0_372_6280)">
<path d="M36.0666 13.2636L22.781 6.75146L15.969 20.6479L29.2542 27.1604L36.0666 13.2636Z" fill="url(#paint0_linear_372_6280)"/>
</g>
<mask id="mask1_372_6280" style="mask-type:luminance" maskUnits="userSpaceOnUse" x="20" y="10" width="12" height="13">
<path d="M20.8501 20.0111C20.8952 20.0696 20.9516 20.1203 21.018 20.1583L25.0624 22.4945L25.7361 22.8817C25.8369 22.9399 25.9517 22.9645 26.0645 22.9561C26.1021 22.9531 26.1397 22.946 26.1764 22.9356L31.1491 13.8305C31.111 13.7891 31.0665 13.7544 31.0166 13.7253L27.9294 11.9426L26.2975 11.0036C26.2512 10.9768 26.2009 10.9578 26.1498 10.9443L20.8501 20.0111Z" fill="white"/>
</mask>
<g mask="url(#mask1_372_6280)">
<path d="M15.106 15.1898L24.4869 27.8865L36.8934 18.7203L27.5119 6.02393L15.106 15.1898Z" fill="url(#paint1_linear_372_6280)"/>
</g>
<mask id="mask2_372_6280" style="mask-type:luminance" maskUnits="userSpaceOnUse" x="21" y="10" width="11" height="13">
<path d="M25.9609 10.9318C25.8818 10.9396 25.8044 10.9643 25.7331 11.0048L21.0317 13.7183L26.1013 22.9521C26.1718 22.942 26.2412 22.9185 26.3039 22.8823L31.0187 20.1588C31.1642 20.0744 31.2638 19.9316 31.294 19.7698L26.1259 10.9411C26.0879 10.9336 26.0498 10.9297 26.0107 10.9297C25.995 10.9297 25.9793 10.9305 25.9637 10.9319" fill="white"/>
</mask>
<g mask="url(#mask2_372_6280)">
<path d="M21.0315 10.9297V22.9523H31.2919V10.9297H21.0315Z" fill="url(#paint2_linear_372_6280)"/>
</g>
<defs>
<linearGradient id="paint0_linear_372_6280" x1="29.4198" y1="9.99729" x2="22.6083" y2="23.8928" gradientUnits="userSpaceOnUse">
<stop stop-color="#112C4B"/>
<stop offset="0.5" stop-color="#214977"/>
<stop offset="1" stop-color="#112C4B"/>
</linearGradient>
<linearGradient id="paint1_linear_372_6280" x1="19.8527" y1="21.6109" x2="32.2596" y2="12.4436" gradientUnits="userSpaceOnUse">
<stop stop-color="#163355"/>
<stop offset="1" stop-color="#112C4B"/>
</linearGradient>
<linearGradient id="paint2_linear_372_6280" x1="21.035" y1="16.9413" x2="31.2938" y2="16.9413" gradientUnits="userSpaceOnUse">
<stop offset="0.16" stop-color="#112C4B"/>
<stop offset="0.9" stop-color="#091C32"/>
</linearGradient>
</defs>
</svg>
