<svg width="51" height="40" viewBox="0 0 51 40" fill="none" xmlns="http://www.w3.org/2000/svg">
<path d="M35.0277 27.4696C35.1946 28.0894 36.0788 28.0894 36.2458 27.4696L41.0527 9.62819C41.274 8.80671 40.6516 8 39.7965 8H36.8328C36.2441 8 35.7289 8.3932 35.5765 8.95868L32.8658 19.0197C32.8283 19.1593 32.8283 19.3062 32.8658 19.4458L35.0277 27.4696Z" fill="#4C739F"/>
<path d="M18.2281 19.0067C18.2657 19.1462 18.2657 19.2932 18.2281 19.4327L16.0663 27.4565C15.8994 28.0763 15.0151 28.0763 14.8482 27.4565L10.0448 9.62819C9.82346 8.80671 10.4459 8 11.301 8H14.2648C14.8534 8 15.3686 8.3932 15.521 8.95868L18.2281 19.0067Z" fill="#4C739F"/>
<path d="M22.2799 31.3914C22.1327 31.9391 21.6351 32.32 21.0667 32.32H18.0338C17.2079 32.32 16.6068 31.5386 16.8206 30.7428L22.6569 9.01566C22.8178 8.4166 23.362 8 23.9838 8H27.5113C28.1331 8 28.6773 8.4166 28.8383 9.01566L34.6746 30.7428C34.8883 31.5386 34.2872 32.32 33.4614 32.32H30.4285C29.86 32.32 29.3624 31.9391 29.2153 31.3914L26.3352 20.6696C26.1741 20.0699 25.321 20.0699 25.1599 20.6696L22.2799 31.3914Z" fill="#4C739F"/>
<path d="M24.6828 29.1302C24.4657 29.1302 24.3078 28.9354 24.364 28.7371L25.4291 24.9761C25.5165 24.6675 25.9794 24.6675 26.0668 24.9761L27.1319 28.7371C27.1881 28.9354 27.0301 29.1302 26.8131 29.1302H24.6828Z" fill="#4C739F"/>
</svg>
