<svg width="47" height="40" viewBox="0 0 47 40" fill="none" xmlns="http://www.w3.org/2000/svg">
<mask id="mask0_372_6581" style="mask-type:luminance" maskUnits="userSpaceOnUse" x="5" y="4" width="37" height="32">
<path d="M41.1736 4.00391H5.00269V35.0019H41.1736V4.00391Z" fill="white"/>
</mask>
<g mask="url(#mask0_372_6581)">
<path d="M39.7506 27.9019C37.8238 28.9098 27.8238 33.023 25.6696 34.1519C23.5155 35.2809 22.3618 35.2487 20.6771 34.4434C18.9923 33.6381 8.38707 29.3248 6.46513 28.4059C5.49676 27.9513 5.00269 27.5635 5.00269 27.2003V23.5417C5.00269 23.5417 18.8564 20.5353 21.0921 19.7251C23.3278 18.9148 24.101 18.895 26.0007 19.5917C27.9004 20.2883 39.2887 22.3436 41.1686 23.0254V26.6322C41.1686 27.0076 40.7363 27.3733 39.7506 27.8994V27.9019Z" fill="#102640"/>
<path d="M39.7502 24.2608C37.8233 25.2638 27.8233 29.3769 25.6692 30.4861C23.515 31.5953 22.3614 31.5854 20.6766 30.7825C18.9918 29.9797 8.3866 25.6664 6.46467 24.7549C4.54274 23.8433 4.50568 23.206 6.39056 22.4698C8.27544 21.7336 18.856 17.5908 21.0916 16.7756C23.3273 15.9604 24.1005 15.9431 26.0002 16.6422C27.8999 17.3413 37.8579 21.2964 39.728 21.9856C41.598 22.6748 41.6845 23.2405 39.7502 24.241V24.2608Z" fill="#4C739F"/>
<path d="M39.7506 21.9433C37.8238 22.9488 27.8238 27.0594 25.6696 28.1686C23.5155 29.2778 22.3717 29.2679 20.6869 28.4601C19.0022 27.6523 8.38707 23.3638 6.46513 22.4473C5.49676 21.9878 5.00269 21.6024 5.00269 21.2368V17.5906C5.00269 17.5906 18.8564 14.5743 21.0921 13.764C23.3278 12.9537 24.101 12.9315 26.0007 13.638C27.9004 14.3445 39.2887 16.3801 41.1686 17.0669V20.6736C41.1686 21.0491 40.7363 21.4246 39.7506 21.9433Z" fill="#102640"/>
<path d="M39.7502 18.2849C37.8233 19.2928 27.8234 23.4035 25.6692 24.5126C23.5151 25.6218 22.3614 25.6144 20.6766 24.8091C18.9919 24.0038 8.38664 19.7078 6.46471 18.7888C4.54277 17.8699 4.50819 17.2449 6.3906 16.5087C8.273 15.7725 18.856 11.6199 21.0917 10.8269C23.3273 10.0339 24.1005 9.98451 26.0002 10.6737C27.8999 11.363 37.8579 15.3526 39.728 16.022C41.598 16.6915 41.6845 17.2795 39.7502 18.2775V18.2849Z" fill="#4C739F"/>
<path d="M39.7507 15.76C37.8238 16.7679 27.8238 20.881 25.6696 21.9878C23.5155 23.0945 22.3717 23.0871 20.6869 22.2842C19.0022 21.4813 8.38707 17.1804 6.46513 16.2639C5.49676 15.8094 5.00269 15.4216 5.00269 15.0559V11.3973C5.00269 11.3973 18.8564 6.41466 21.0921 5.60685C23.3278 4.79905 24.101 4.77435 26.0007 5.47098C27.9004 6.16762 39.2838 10.1992 41.1637 10.886V14.4927C41.1686 14.8731 40.7363 15.2437 39.7507 15.76Z" fill="#102640"/>
</g>
<path fill-rule="evenodd" clip-rule="evenodd" d="M32.9771 15.0993C35.9246 13.8309 38.8062 12.5909 39.7502 12.1068V12.0994C41.6845 11.0989 41.598 10.5282 39.728 9.84147C38.8014 9.5012 35.8893 8.35738 32.9556 7.20509L32.9556 7.20508L32.9556 7.20506C29.9683 6.03171 26.9587 4.84957 26.0002 4.4981C24.1005 3.80146 23.3273 3.82617 21.0916 4.6315C19.1349 5.33636 10.7857 8.6035 7.46904 9.90134L7.4688 9.90144L7.46856 9.90153C6.996 10.0864 6.62565 10.2314 6.39056 10.3232C4.50568 11.0594 4.54274 11.6942 6.46467 12.6083C7.45931 13.0813 10.7796 14.4627 13.9855 15.7966L13.9856 15.7967C16.9744 17.0402 19.8637 18.2423 20.6766 18.6285C22.3614 19.4289 23.515 19.4314 25.6692 18.3321C26.768 17.7713 29.9082 16.42 32.977 15.0994L32.9771 15.0993ZM26.0394 6.12844L23.6531 6.91154L21.1259 5.91846L21.9386 7.41549L19.2361 8.38881L22.8551 8.7149L23.9866 10.5998L24.6906 8.91005L27.8206 8.58397L25.3922 7.67488L26.0394 6.12844ZM23.8036 16.776L17.9539 14.3476L26.3333 13.0605L23.8036 16.776ZM20.1726 11.252C20.1726 10.3009 18.1642 9.52277 15.6938 9.52277C13.221 9.52277 11.2126 10.3009 11.2126 11.252C11.2126 12.2031 13.2284 12.9813 15.6938 12.9813C18.1593 12.9813 20.1726 12.2031 20.1726 11.252Z" fill="#4C739F"/>
<path d="M31.5291 9.0459L36.487 11.0049L31.534 12.9639L31.5291 9.0459Z" fill="#102640"/>
<path d="M31.5289 9.0459L31.5339 12.9639L30.9953 13.1739L26.0398 11.2149L31.5289 9.0459Z" fill="#265182"/>
</svg>
