<svg width="53" height="44" viewBox="0 0 53 44" fill="none" xmlns="http://www.w3.org/2000/svg">
<path d="M29.3173 15.9007L27.9836 18.2103L23.4222 10.3096L9.41947 34.5601H18.9002C18.9002 35.8356 19.9343 36.8696 21.2098 36.8696H9.41947C8.59442 36.8696 7.83212 36.4292 7.41966 35.7147C7.00721 35.0001 7.00725 34.1198 7.41978 33.4053L21.4225 9.15485C21.835 8.44023 22.5975 8 23.4227 8C24.2478 8 25.0103 8.44023 25.4228 9.15485L29.3173 15.9007Z" fill="#4C729F"/>
<path d="M39.4252 33.4055L30.6508 18.2104L29.317 15.9009L27.9833 18.2104L19.2098 33.4055C18.7973 34.12 18.7972 35.0003 19.2097 35.7148C19.6222 36.4294 20.3845 36.8698 21.2095 36.8698H37.4227C38.2479 36.8698 39.0105 36.4299 39.4232 35.7152C39.8359 35.0006 39.8359 34.1201 39.4233 33.4055H39.4252ZM21.2095 34.5602L29.3171 20.52L37.4227 34.5602L21.2095 34.5602Z" fill="#0F2845"/>
<path d="M45.6989 35.7148C45.2865 36.4292 44.5242 36.8696 43.6992 36.8696H37.423C38.6985 36.8696 39.7326 35.8356 39.7326 34.56H43.6944L32.4526 15.0894L30.6512 18.2102L29.3174 15.9007L30.4529 13.9346C30.8655 13.22 31.6279 12.7798 32.4531 12.7798C33.2783 12.7798 34.0407 13.22 34.4533 13.9346L45.6989 33.4052C46.1115 34.1198 46.1115 35.0002 45.6989 35.7148Z" fill="#4C729F"/>
</svg>
