<svg width="49" height="40" viewBox="0 0 49 40" fill="none" xmlns="http://www.w3.org/2000/svg">
<path d="M35.6699 9.4541L25.9885 16.6446L27.7788 12.4023L35.6699 9.4541Z" fill="#49627F" stroke="#49627F" stroke-linecap="round" stroke-linejoin="round"/>
<path d="M13.3199 9.4541L22.9235 16.7127L21.2208 12.4023L13.3199 9.4541ZM32.1866 26.1217L29.6081 30.0721L35.125 31.59L36.711 26.2093L32.1866 26.1217ZM12.2983 26.2093L13.8746 31.59L19.3915 30.0721L16.813 26.1217L12.2983 26.2093Z" fill="#496280" stroke="#496280" stroke-linecap="round" stroke-linejoin="round"/>
<path d="M19.0802 19.4471L17.5428 21.7726L23.0208 22.0158L22.8262 16.1291L19.0802 19.4471ZM29.9097 19.4471L26.115 16.061L25.9885 22.0158L31.4568 21.7726L29.9097 19.4471ZM19.3915 30.0723L22.6803 28.4669L19.8391 26.2484L19.3915 30.0723ZM26.3096 28.4669L29.6081 30.0723L29.1508 26.2484L26.3096 28.4669Z" fill="#496280" stroke="#496280" stroke-linecap="round" stroke-linejoin="round"/>
<path d="M29.6081 30.0723L26.3096 28.4668L26.5723 30.6171L26.5431 31.522L29.6081 30.0723ZM19.3915 30.0723L22.4565 31.522L22.437 30.6171L22.6803 28.4668L19.3915 30.0723Z" fill="#3A434F" stroke="#3A434F" stroke-linecap="round" stroke-linejoin="round"/>
<path d="M22.5051 24.8278L19.7613 24.0202L21.6975 23.1348L22.5051 24.8278ZM26.4847 24.8278L27.2923 23.1348L29.2383 24.0202L26.4847 24.8278Z" fill="#233447" stroke="#233447" stroke-linecap="round" stroke-linejoin="round"/>
<path d="M19.3915 30.0722L19.8586 26.1218L16.813 26.2094L19.3915 30.0722ZM29.141 26.1218L29.6081 30.0722L32.1866 26.2094L29.141 26.1218ZM31.4568 21.7725L25.9885 22.0157L26.4945 24.8277L27.3021 23.1347L29.2481 24.0201L31.4568 21.7725ZM19.7613 24.0201L21.7073 23.1347L22.5051 24.8277L23.0208 22.0157L17.5428 21.7725L19.7613 24.0201Z" fill="#496280" stroke="#496280" stroke-linecap="round" stroke-linejoin="round"/>
<path d="M17.5428 21.7725L19.8391 26.2483L19.7613 24.0201L17.5428 21.7725ZM29.2481 24.0201L29.1508 26.2483L31.4568 21.7725L29.2481 24.0201ZM23.0208 22.0157L22.5051 24.8277L23.1473 28.1457L23.2933 23.7769L23.0208 22.0157ZM25.9885 22.0157L25.7258 23.7671L25.8425 28.1457L26.4945 24.8277L25.9885 22.0157Z" fill="#3A434F" stroke="#3A434F" stroke-linecap="round" stroke-linejoin="round"/>
<path d="M26.4945 24.8276L25.8425 28.1456L26.3096 28.4667L29.1508 26.2482L29.2481 24.02L26.4945 24.8276ZM19.7613 24.02L19.8391 26.2482L22.6803 28.4667L23.1473 28.1456L22.5051 24.8276L19.7613 24.02Z" fill="#4C739F" stroke="#4C739F" stroke-linecap="round" stroke-linejoin="round"/>
<path d="M26.5431 31.522L26.5723 30.6172L26.329 30.4031H22.6608L22.437 30.6172L22.4565 31.522L19.3915 30.0723L20.4618 30.948L22.6316 32.4561H26.3582L28.5378 30.948L29.6081 30.0723L26.5431 31.522Z" fill="#46596F" stroke="#46596F" stroke-linecap="round" stroke-linejoin="round"/>
<path d="M26.3096 28.4666L25.8425 28.1455H23.1473L22.6803 28.4666L22.437 30.6169L22.6608 30.4029H26.3291L26.5723 30.6169L26.3096 28.4666Z" fill="#102640" stroke="#102640" stroke-linecap="round" stroke-linejoin="round"/>
<path d="M36.0786 17.1117L36.9056 13.1418L35.6699 9.4541L26.3096 16.4014L29.9097 19.4469L34.9985 20.9356L36.1272 19.622L35.6407 19.2717L36.4191 18.5614L35.8159 18.0944L36.5943 17.5009L36.0786 17.1117ZM12.094 13.1418L12.921 17.1117L12.3956 17.5009L13.174 18.0944L12.5805 18.5614L13.3589 19.2717L12.8724 19.622L13.9913 20.9356L19.0801 19.4469L22.6803 16.4014L13.3199 9.4541L12.094 13.1418Z" fill="#6286B1" stroke="#6286B1" stroke-linecap="round" stroke-linejoin="round"/>
<path d="M34.9985 20.9356L29.9097 19.4469L31.4568 21.7724L29.1508 26.2482L32.1866 26.2093H36.711L34.9985 20.9356ZM19.0801 19.4469L13.9913 20.9356L12.2983 26.2093H16.813L19.8391 26.2482L17.5428 21.7724L19.0801 19.4469ZM25.9885 22.0157L26.3096 16.4014L27.7886 12.4023H21.2208L22.6803 16.4014L23.0208 22.0157L23.1376 23.7865L23.1473 28.1456H25.8425L25.862 23.7865L25.9885 22.0157Z" fill="#4C739F" stroke="#4C739F" stroke-linecap="round" stroke-linejoin="round"/>
</svg>
