<svg width="56" height="45" viewBox="0 0 56 45" fill="none" xmlns="http://www.w3.org/2000/svg">
<g clip-path="url(#clip0_1087_6220)">
<path d="M48.7934 27.8575C45.7022 27.8575 43.1957 25.351 43.1957 22.2598C43.1957 19.1686 45.7022 16.6621 48.7934 16.6621C49.1274 16.6621 49.4545 16.6933 49.7729 16.7489L48.7934 13.4728H15.0373V13.4746C10.2465 13.5648 6.38916 17.4759 6.38916 22.2893C6.38916 27.1018 10.2456 31.0138 15.0373 31.1031V31.1048H48.7925L49.7721 27.7698C49.4545 27.8262 49.1274 27.8575 48.7934 27.8575Z" fill="#597DA8"/>
<mask id="mask0_1087_6220" style="mask-type:luminance" maskUnits="userSpaceOnUse" x="6" y="13" width="44" height="19">
<path d="M48.7934 27.8575C45.7022 27.8575 43.1957 25.351 43.1957 22.2598C43.1957 19.1686 45.7022 16.6621 48.7934 16.6621C49.1274 16.6621 49.4545 16.6933 49.7729 16.7489V13.4728H15.0373V13.4746C10.2465 13.5648 6.38916 17.4759 6.38916 22.2893C6.38916 27.1018 10.2456 31.0138 15.0373 31.1031V31.1048H48.7925L49.7721 27.7698C49.4545 27.8262 49.1274 27.8575 48.7934 27.8575Z" fill="white"/>
</mask>
<g mask="url(#mask0_1087_6220)">
<path d="M43.1506 17.8221H3.96509V22.2555H43.1506V17.8221Z" fill="#315B8C"/>
<path d="M50.0326 26.6723H3.96533V32.9494H50.0326V26.6723Z" fill="#315B8C"/>
</g>
<path d="M48.7936 28.9836C44.9815 28.9836 41.8911 26.0668 41.8911 22.2546C41.8911 18.4424 44.9815 15.6123 48.7936 15.6123" stroke="#6288B5" stroke-width="4.25118" stroke-miterlimit="10" stroke-linecap="round" stroke-linejoin="round"/>
</g>
<defs>
<clipPath id="clip0_1087_6220">
<rect width="45.0513" height="18.5785" fill="white" transform="translate(5.97437 13)"/>
</clipPath>
</defs>
</svg>