<svg width="29" height="39" viewBox="0 0 29 39" fill="none" xmlns="http://www.w3.org/2000/svg">
<path d="M18.3232 13.6286H19.202L21.7065 11.0286L21.8296 9.9247C20.3948 8.61006 18.6609 7.69683 16.7916 7.27127C14.9223 6.84571 12.9794 6.92187 11.1464 7.49256C9.31332 8.06325 7.65069 9.10962 6.31551 10.5328C4.98033 11.9561 4.01669 13.7091 3.51562 15.6265C3.79464 15.5077 4.10372 15.4885 4.39441 15.5717L9.4035 14.7142C9.4035 14.7142 9.65835 14.2763 9.79017 14.3036C10.8635 13.08 12.3467 12.3285 13.9363 12.203C15.5259 12.0775 17.1016 12.5875 18.3408 13.6286H18.3232Z" fill="#4C739F"/>
<path d="M25.2738 15.6267C24.6982 13.426 23.5162 11.4475 21.8729 9.93408L18.3578 13.5832C19.0904 14.2046 19.6775 14.9906 20.0748 15.8819C20.4721 16.7732 20.6693 17.7465 20.6514 18.7285V19.3762C21.0623 19.3762 21.4691 19.4602 21.8486 19.6234C22.2282 19.7866 22.5731 20.0258 22.8636 20.3274C23.1541 20.629 23.3845 20.987 23.5418 21.3811C23.699 21.7751 23.7799 22.1974 23.7799 22.6239C23.7799 23.0504 23.699 23.4727 23.5418 23.8668C23.3845 24.2608 23.1541 24.6188 22.8636 24.9204C22.5731 25.222 22.2282 25.4612 21.8486 25.6244C21.4691 25.7876 21.0623 25.8716 20.6514 25.8716H14.3944L13.7705 26.5285V30.4239L14.3944 31.0716H20.6514C22.3987 31.0857 24.1039 30.5157 25.5148 29.4457C26.9258 28.3758 27.9675 26.8628 28.4859 25.1306C29.0043 23.3984 28.9719 21.539 28.3934 19.8274C27.815 18.1158 26.7212 16.6429 25.2738 15.6267Z" fill="#4C739F"/>
<path d="M8.12898 31.0349H14.3859V25.8349H8.12898C7.6832 25.8348 7.24264 25.7352 6.83716 25.543L5.95837 25.8258L3.43625 28.4258L3.21655 29.3381C4.6309 30.4468 6.35671 31.0429 8.12898 31.0349Z" fill="#4C739F"/>
<path d="M8.12901 14.167C6.43367 14.1776 4.78382 14.7375 3.40991 15.7686C2.036 16.7998 1.00662 18.2507 0.465567 19.9186C-0.0754895 21.5866 -0.101211 23.3883 0.391995 25.0722C0.885202 26.756 1.87271 28.2379 3.21658 29.3109L6.84597 25.5432C6.38475 25.3269 5.98097 24.9976 5.66928 24.5837C5.35758 24.1697 5.14728 23.6835 5.05641 23.1666C4.96554 22.6498 4.99682 22.1177 5.14756 21.6162C5.2983 21.1146 5.56401 20.6585 5.92188 20.287C6.27975 19.9155 6.71911 19.6397 7.20224 19.4832C7.68538 19.3267 8.19788 19.2942 8.69576 19.3886C9.19365 19.4829 9.66205 19.7012 10.0608 20.0248C10.4595 20.3484 10.7767 20.7675 10.9851 21.2463L14.6145 17.4786C13.8527 16.4448 12.8709 15.6079 11.7458 15.0334C10.6207 14.4589 9.38282 14.1624 8.12901 14.167Z" fill="#4C739F"/>
</svg>
