<svg width="41" height="42" viewBox="0 0 41 42" fill="none" xmlns="http://www.w3.org/2000/svg">
<path d="M27.6371 28.4437C29.0025 28.3029 30.0383 27.13 29.9912 25.7225C29.9442 24.315 28.767 23.189 27.3545 23.189H27.2604C25.8007 23.2359 24.6707 24.4557 24.7179 25.9101C24.765 26.6139 25.0474 27.2238 25.4711 27.646C23.8703 30.7895 21.422 33.0884 17.7494 35.012C15.2539 36.3257 12.6644 36.7949 10.0748 36.4665C7.95599 36.185 6.30804 35.2467 5.27204 33.6983C3.76545 31.3994 3.62424 28.9128 4.89554 26.4262C5.79019 24.6434 7.20254 23.3297 8.09719 22.6728C7.90887 22.0629 7.62631 21.0308 7.4851 20.2802C0.657881 25.2065 1.36421 31.8686 3.43592 35.012C4.98963 37.358 8.14431 38.8124 11.6285 38.8124C12.5701 38.8124 13.5118 38.7185 14.4535 38.484C20.4803 37.311 25.0475 33.7453 27.6371 28.4437ZM35.9239 22.626C32.3455 18.4504 27.0721 16.1515 21.0453 16.1515H20.292C19.8682 15.307 18.9736 14.7439 17.9849 14.7439H17.8906C16.4312 14.7909 15.3012 16.0107 15.3482 17.4652C15.3953 18.8726 16.5724 19.9987 17.9849 19.9987H18.079C19.1148 19.9517 20.0095 19.2949 20.3861 18.4034H21.2336C24.8121 18.4034 28.2021 19.4356 31.2627 21.4531C33.6168 23.0013 35.3118 25.0188 36.2535 27.4584C37.0539 29.4289 37.0068 31.3525 36.1592 32.9947C34.841 35.4812 32.628 36.8418 29.7088 36.8418C27.8254 36.8418 26.0363 36.2787 25.0945 35.8565C24.5766 36.3257 23.6349 37.0763 22.9757 37.5456C25.0004 38.4839 27.0721 39 29.0496 39C33.5697 39 36.9127 36.5133 38.184 34.0268C39.5494 31.3055 39.4551 26.6139 35.9239 22.626ZM12.0052 29.2411C12.0523 30.6487 13.2294 31.7746 14.6419 31.7746H14.7361C16.1957 31.7278 17.3257 30.5079 17.2785 29.0535C17.2316 27.6459 16.0544 26.52 14.6419 26.52H14.5478C14.4535 26.52 14.3122 26.52 14.2182 26.5668C12.2877 23.3765 11.4873 19.9048 11.7699 16.1514C11.9581 13.3363 12.8998 10.8966 14.5478 8.87915C15.9132 7.14322 18.5498 6.29873 20.3391 6.25193C25.3299 6.15803 27.4486 12.351 27.59 14.8377C28.2021 14.9784 29.2379 15.3069 29.9442 15.5415C29.3791 7.94105 24.6707 4 20.1508 4C15.9132 4 12.0052 7.04961 10.4513 11.5536C8.28552 17.5589 9.69802 23.3297 12.3347 27.8806C12.0994 28.209 11.9581 28.725 12.0052 29.2411Z" fill="#4C729F"/>
</svg>
