<svg width="41" height="40" viewBox="0 0 41 40" fill="none" xmlns="http://www.w3.org/2000/svg">
<path d="M33.7695 15.6697L29.7815 19.6577L33.7695 23.6458L37.7576 19.6577L33.7695 15.6697Z" fill="#4C739F"/>
<path d="M7.23268 15.6721L3.24463 19.6602L7.23268 23.6482L11.2207 19.6602L7.23268 15.6721Z" fill="#4C739F"/>
<path d="M20.5001 28.9432L13.8894 22.3325L9.9021 26.3198L20.5001 36.9178L31.098 26.3198L27.1107 22.3325L20.5001 28.9432Z" fill="#4C739F"/>
<path d="M20.5001 10.3769L27.1107 16.9876L31.098 13.0003L20.5001 2.40234L9.9021 13.0003L13.8894 16.9876L20.5001 10.3769Z" fill="#4C739F"/>
<path d="M20.4979 15.7221L16.5598 19.6602L20.4979 23.5983L24.436 19.6602L20.4979 15.7221Z" fill="#4C739F"/>
</svg>
