<svg width="67" height="40" viewBox="0 0 67 40" fill="none" xmlns="http://www.w3.org/2000/svg">
<path d="M22.554 15.4459C22.554 16.0378 22.6179 16.5177 22.7299 16.8696C22.8579 17.2215 23.0179 17.6055 23.2418 18.0214C23.3218 18.1494 23.3538 18.2773 23.3538 18.3893C23.3538 18.5493 23.2578 18.7092 23.0499 18.8692L22.0421 19.5411C21.8981 19.6371 21.7541 19.685 21.6261 19.685C21.4662 19.685 21.3062 19.6051 21.1462 19.4611C20.9223 19.2211 20.7303 18.9652 20.5704 18.7092C20.4104 18.4373 20.2504 18.1334 20.0745 17.7654C18.8267 19.2371 17.259 19.973 15.3714 19.973C14.0277 19.973 12.9559 19.5891 12.172 18.8212C11.3882 18.0534 10.9883 17.0296 10.9883 15.7498C10.9883 14.3901 11.4682 13.2863 12.444 12.4545C13.4198 11.6227 14.7155 11.2068 16.3632 11.2068C16.9071 11.2068 17.467 11.2547 18.0589 11.3347C18.6507 11.4147 19.2586 11.5427 19.8985 11.6867V10.5189C19.8985 9.30313 19.6425 8.4553 19.1466 7.9594C18.6347 7.4635 17.7709 7.22355 16.5392 7.22355C15.9793 7.22355 15.4034 7.28754 14.8115 7.43151C14.2196 7.57548 13.6437 7.75145 13.0839 7.9754C12.8279 8.08738 12.6359 8.15137 12.524 8.18336C12.412 8.21535 12.332 8.23135 12.268 8.23135C12.0441 8.23135 11.9321 8.07138 11.9321 7.73545V6.95161C11.9321 6.69566 11.9641 6.5037 12.0441 6.39172C12.1241 6.27974 12.268 6.16776 12.492 6.05579C13.0519 5.76785 13.7237 5.52789 14.5076 5.33593C15.2914 5.12797 16.1232 5.03199 17.0031 5.03199C18.9067 5.03199 20.2984 5.46391 21.1942 6.32773C22.074 7.19156 22.522 8.50329 22.522 10.2629V15.4459H22.554ZM16.0593 17.8774C16.5872 17.8774 17.131 17.7814 17.7069 17.5895C18.2828 17.3975 18.7947 17.0456 19.2266 16.5657C19.4826 16.2617 19.6745 15.9258 19.7705 15.5419C19.8665 15.158 19.9305 14.694 19.9305 14.1502V13.4783C19.4666 13.3663 18.9707 13.2703 18.4588 13.2063C17.9469 13.1424 17.451 13.1104 16.9551 13.1104C15.8833 13.1104 15.0995 13.3183 14.5716 13.7502C14.0437 14.1822 13.7877 14.79 13.7877 15.5899C13.7877 16.3417 13.9797 16.9016 14.3796 17.2855C14.7635 17.6854 15.3234 17.8774 16.0593 17.8774ZM28.9047 19.6051C28.6167 19.6051 28.4248 19.5571 28.2968 19.4451C28.1688 19.3491 28.0568 19.1252 27.9609 18.8212L24.2016 6.45571C24.1056 6.13577 24.0577 5.92781 24.0577 5.81584C24.0577 5.55989 24.1856 5.41592 24.4416 5.41592H26.0093C26.3132 5.41592 26.5212 5.46391 26.6331 5.57588C26.7611 5.67186 26.8571 5.89582 26.9531 6.19976L29.6405 16.7896L32.136 6.19976C32.216 5.87982 32.312 5.67186 32.44 5.57588C32.5679 5.4799 32.7919 5.41592 33.0798 5.41592H34.3596C34.6635 5.41592 34.8715 5.46391 34.9994 5.57588C35.1274 5.67186 35.2394 5.89582 35.3034 6.19976L37.8309 16.9176L40.5983 6.19976C40.6943 5.87982 40.8063 5.67186 40.9183 5.57588C41.0462 5.4799 41.2542 5.41592 41.5421 5.41592H43.0298C43.2858 5.41592 43.4297 5.54389 43.4297 5.81584C43.4297 5.89582 43.4138 5.9758 43.3978 6.07178C43.3818 6.16776 43.3498 6.29574 43.2858 6.4717L39.4306 18.8372C39.3346 19.1572 39.2226 19.3651 39.0946 19.4611C38.9666 19.5571 38.7587 19.6211 38.4867 19.6211H37.111C36.8071 19.6211 36.5991 19.5731 36.4711 19.4611C36.3432 19.3491 36.2312 19.1412 36.1672 18.8212L33.6877 8.50329L31.2242 18.8052C31.1442 19.1252 31.0482 19.3331 30.9203 19.4451C30.7923 19.5571 30.5683 19.6051 30.2804 19.6051H28.9047ZM49.4605 20.037C48.6287 20.037 47.7969 19.941 46.997 19.749C46.1972 19.5571 45.5733 19.3491 45.1574 19.1092C44.9015 18.9652 44.7255 18.8052 44.6615 18.6613C44.5975 18.5173 44.5655 18.3573 44.5655 18.2133V17.3975C44.5655 17.0616 44.6935 16.9016 44.9334 16.9016C45.0294 16.9016 45.1254 16.9176 45.2214 16.9496C45.3174 16.9816 45.4613 17.0456 45.6213 17.1096C46.1652 17.3495 46.7571 17.5415 47.381 17.6694C48.0208 17.7974 48.6447 17.8614 49.2846 17.8614C50.2924 17.8614 51.0762 17.6854 51.6201 17.3335C52.164 16.9816 52.4519 16.4697 52.4519 15.8138C52.4519 15.3659 52.308 14.998 52.02 14.694C51.7321 14.3901 51.1882 14.1182 50.4043 13.8622L48.0848 13.1424C46.917 12.7744 46.0532 12.2305 45.5253 11.5107C44.9974 10.8068 44.7255 10.023 44.7255 9.19116C44.7255 8.51929 44.8695 7.92741 45.1574 7.41551C45.4453 6.90362 45.8293 6.45571 46.3092 6.10378C46.7891 5.73585 47.333 5.46391 47.9728 5.27195C48.6127 5.07998 49.2846 5 49.9884 5C50.3404 5 50.7083 5.016 51.0602 5.06399C51.4281 5.11198 51.7641 5.17596 52.1 5.23995C52.4199 5.31994 52.7239 5.39992 53.0118 5.4959C53.2998 5.59188 53.5237 5.68786 53.6837 5.78384C53.9076 5.91182 54.0676 6.03979 54.1636 6.18376C54.2596 6.31174 54.3076 6.4877 54.3076 6.71166V7.4635C54.3076 7.79944 54.1796 7.9754 53.9396 7.9754C53.8117 7.9754 53.6037 7.91141 53.3318 7.78344C52.4199 7.36752 51.3961 7.15957 50.2604 7.15957C49.3486 7.15957 48.6287 7.30354 48.1328 7.60748C47.6369 7.91141 47.381 8.37532 47.381 9.03119C47.381 9.4791 47.5409 9.86302 47.8609 10.167C48.1808 10.4709 48.7727 10.7748 49.6205 11.0468L51.892 11.7666C53.0438 12.1346 53.8756 12.6465 54.3715 13.3023C54.8674 13.9582 55.1074 14.71 55.1074 15.5419C55.1074 16.2297 54.9634 16.8536 54.6915 17.3975C54.4035 17.9414 54.0196 18.4213 53.5237 18.8052C53.0278 19.2051 52.4359 19.4931 51.7481 19.701C51.0282 19.925 50.2764 20.037 49.4605 20.037Z" fill="#4C739F"/>
<path fill-rule="evenodd" clip-rule="evenodd" d="M52.4844 27.8111C47.2214 31.6984 39.575 33.7619 33.0003 33.7619C23.7861 33.7619 15.4838 30.3546 9.21308 24.6918C8.71718 24.2439 9.16509 23.636 9.75697 23.9879C16.5396 27.9231 24.9059 30.3066 33.5602 30.3066C39.399 30.3066 45.8137 29.0909 51.7165 26.5954C52.5963 26.1955 53.3482 27.1713 52.4844 27.8111Z" fill="#4C739F"/>
<path fill-rule="evenodd" clip-rule="evenodd" d="M54.6761 25.3159C54.0042 24.4521 50.229 24.9 48.5173 25.108C48.0054 25.1719 47.9254 24.724 48.3893 24.3881C51.3967 22.2765 56.3397 22.8844 56.9156 23.5883C57.4915 24.3081 56.7556 29.2511 53.9402 31.6186C53.5083 31.9866 53.0924 31.7946 53.2843 31.3147C53.9242 29.731 55.3479 26.1637 54.6761 25.3159Z" fill="#4C739F"/>
</svg>
