<svg width="41" height="40" viewBox="0 0 41 40" fill="none" xmlns="http://www.w3.org/2000/svg">
<g clip-path="url(#clip0_372_6367)">
<path d="M20.3768 -0.0364302C9.51644 0.0145402 0.756816 8.85426 0.804146 19.7109C0.855116 30.5676 9.69484 39.3309 20.5515 39.2836C31.4082 39.2326 40.1715 30.3929 40.1241 19.5362C40.0732 8.67586 31.2335 -0.0837598 20.3768 -0.0364302ZM17.8865 18.6588C15.946 18.6588 14.3695 17.086 14.3695 15.1455C14.3695 13.2049 15.9423 11.6321 17.8865 11.6321C19.827 11.6321 21.3998 13.2049 21.3998 15.1455C21.3998 17.086 19.827 18.6588 17.8865 18.6588ZM20.6899 22.4597L20.7081 22.4379L20.7263 22.416C21.7311 23.0641 22.8743 23.2898 24.0175 23.3262C25.1643 23.3553 26.3294 23.2716 27.4799 23.0386C28.6267 22.8019 29.7553 22.4488 30.8439 21.9973C31.4555 21.7461 32.0635 21.4694 32.6424 21.1454C32.6461 21.1418 32.6497 21.1418 32.6533 21.1381C33.0138 20.9197 33.3669 20.6939 33.7128 20.4573C33.7893 20.4027 33.8621 20.3481 33.9312 20.2898L33.9385 20.3007L33.9677 20.3372C33.083 21.1418 32.0308 21.7388 30.9604 22.2667C29.8791 22.7765 28.7505 23.1951 27.5854 23.4973C26.424 23.7959 25.2117 24.0252 23.9847 23.9124C22.776 23.7995 21.5018 23.3772 20.6899 22.4597ZM29.7116 18.6588C29.7116 18.2364 30.0502 17.8979 30.4689 17.8942C30.8912 17.8942 31.2298 18.2328 31.2335 18.6515C31.2335 19.0702 30.8949 19.416 30.4762 19.416C30.0575 19.4197 29.7116 19.0811 29.7116 18.6588ZM23.6898 37.5178C22.9289 32.195 27.5745 26.9851 30.1958 24.3201C30.7893 23.7158 31.7104 22.882 32.566 21.9973C35.9664 18.819 36.6436 15.018 29.6825 13.1176C28.3646 12.7353 26.9956 12.1928 25.6122 11.6467C25.5685 11.5193 25.5175 11.3991 25.4629 11.2863C25.3027 11.0132 25.026 10.6965 24.6037 10.3397C23.6971 9.55328 22.0005 9.57513 20.5333 9.921C18.9096 9.53872 17.3113 9.40401 15.7712 9.77173C9.0395 11.6249 7.9582 14.9088 7.69607 18.8663C7.33928 23.1405 7.13175 26.3262 5.51162 29.9669C3.49101 27.0507 2.30049 23.5192 2.28593 19.7037C2.24224 9.66614 10.3429 1.48904 20.3841 1.44535C30.4252 1.40166 38.5987 9.50231 38.646 19.5435C38.6824 28.5106 32.2237 35.9923 23.6898 37.5178Z" fill="#4C739F"/>
<path d="M20.3587 15.1781C20.3587 16.5434 19.2519 17.6502 17.8866 17.6502C16.5213 17.6502 15.4146 16.5434 15.4146 15.1781C15.4146 13.8128 16.5213 12.7061 17.8866 12.7061C19.2519 12.7061 20.3587 13.8128 20.3587 15.1781Z" fill="#4C739F"/>
</g>
<defs>
<clipPath id="clip0_372_6367">
<rect width="39.32" height="39.32" fill="white" transform="translate(0.840088)"/>
</clipPath>
</defs>
</svg>
