<svg width="41" height="40" viewBox="0 0 41 40" fill="none" xmlns="http://www.w3.org/2000/svg">
<path d="M31.8653 22.0276C30.7287 19.5702 27.9181 18.5996 27.9181 18.5996C27.9181 18.5996 31.4598 16.7811 30.6826 13.2118C30.182 10.8834 28.0717 8.54273 24.1429 8.48437V5.10547H20.6442V8.48437H18.0978V5.10547H14.6021V8.48437H10.2126V11.6728H12.24C12.3489 11.6728 12.4567 11.6943 12.5574 11.736C12.658 11.7776 12.7494 11.8387 12.8264 11.9157C12.9035 11.9928 12.9645 12.0842 13.0062 12.1848C13.0479 12.2854 13.0694 12.3933 13.0694 12.5022V26.2635C13.0694 26.5079 12.9723 26.7423 12.7994 26.9151C12.6266 27.088 12.3922 27.1851 12.1478 27.1851H10.9406L10.2126 30.6162H14.6021V34.2255H18.0978V30.6162H20.6442V34.2255H24.1399V30.6162H24.8156C31.5827 30.6162 33.4011 25.4096 31.8653 22.0276ZM21.6579 11.6728C23.4364 11.6728 25.086 12.8186 25.132 14.5756C25.1781 16.3326 23.7221 17.8501 21.79 17.8746C20.0115 17.8961 18.1039 17.8746 18.1039 17.8746V11.6728C18.1039 11.6728 19.7934 11.6728 21.6579 11.6728ZM22.7023 27.1758C20.8593 27.2096 18.0947 27.1758 18.0947 27.1758V20.7252C18.0947 20.7252 20.6473 20.7621 22.5518 20.7252C24.8433 20.6883 26.5297 21.7573 26.545 23.7754C26.5604 25.7936 25.1873 27.1359 22.7023 27.182V27.1758Z" fill="#4C739F"/>
</svg>
