<svg width="41" height="40" viewBox="0 0 41 40" fill="none" xmlns="http://www.w3.org/2000/svg">
<path d="M6.53207 27.6278L7.80176 28.3608L21.9465 3.86209L20.6769 3.12901L6.53207 27.6278Z" fill="#4C739F"/>
<path d="M34.5317 25.6699H6.24219V27.1361H34.5317V25.6699Z" fill="#4C739F"/>
<path d="M6.80207 26.4943L20.9521 34.6641L21.6852 33.3944L7.53515 25.2246L6.80207 26.4943Z" fill="#4C739F"/>
<path d="M19.0941 5.2013L33.2441 13.3711L33.9772 12.1014L19.8271 3.93162L19.0941 5.2013Z" fill="#4C739F"/>
<path d="M6.80599 12.0956L7.53906 13.3652L21.6891 5.19545L20.9561 3.92576L6.80599 12.0956Z" fill="#4C739F"/>
<path d="M18.8376 3.86209L32.9824 28.3608L34.2521 27.6278L20.1073 3.12901L18.8376 3.86209Z" fill="#4C739F"/>
<path d="M8.82967 11.1235H7.36353V27.4631H8.82967V11.1235Z" fill="#4C739F"/>
<path d="M33.4185 11.1235H31.9524V27.4631H33.4185V11.1235Z" fill="#4C739F"/>
<path d="M20.0618 32.9339L20.7021 34.043L33.0089 26.9375L32.3686 25.8284L20.0618 32.9339Z" fill="#4C739F"/>
<path d="M35.3615 27.94C34.5136 29.415 32.6235 29.9184 31.1486 29.0705C29.6736 28.2226 29.1701 26.3325 30.018 24.8575C30.8659 23.3826 32.756 22.8791 34.231 23.727C35.7148 24.5837 36.2182 26.465 35.3615 27.94Z" fill="#4C739F"/>
<path d="M10.7551 13.729C9.90718 15.204 8.01709 15.7075 6.54211 14.8596C5.06713 14.0117 4.56369 12.1216 5.41159 10.6466C6.25948 9.17162 8.14957 8.66819 9.62455 9.51608C11.0995 10.3728 11.603 12.2541 10.7551 13.729Z" fill="#4C739F"/>
<path d="M5.42038 27.94C4.57248 26.465 5.07592 24.5837 6.5509 23.727C8.02588 22.8791 9.90714 23.3826 10.7639 24.8575C11.6118 26.3325 11.1083 28.2138 9.63334 29.0705C8.14953 29.9184 6.26827 29.415 5.42038 27.94Z" fill="#4C739F"/>
<path d="M30.0271 13.729C29.1792 12.2541 29.6826 10.3728 31.1576 9.51608C32.6326 8.66819 34.5138 9.17162 35.3705 10.6466C36.2184 12.1216 35.715 14.0028 34.24 14.8596C32.765 15.7075 30.875 15.204 30.0271 13.729Z" fill="#4C739F"/>
<path d="M20.391 36.5868C18.6864 36.5868 17.3086 35.2089 17.3086 33.5043C17.3086 31.7997 18.6864 30.4219 20.391 30.4219C22.0956 30.4219 23.4735 31.7997 23.4735 33.5043C23.4735 35.2001 22.0956 36.5868 20.391 36.5868Z" fill="#4C739F"/>
<path d="M20.391 8.16488C18.6864 8.16488 17.3086 6.78706 17.3086 5.08244C17.3086 3.37782 18.6864 2 20.391 2C22.0956 2 23.4735 3.37782 23.4735 5.08244C23.4735 6.78706 22.0956 8.16488 20.391 8.16488Z" fill="#4C739F"/>
</svg>
