<svg width="51" height="40" viewBox="0 0 51 40" fill="none" xmlns="http://www.w3.org/2000/svg">
<path d="M35.961 23.854C34.9116 23.854 33.9716 24.3491 33.3704 25.1084C32.9222 25.6695 32.6489 26.3958 32.6489 27.188C32.6489 29.0255 34.1355 30.522 35.961 30.522C37.0432 30.522 37.9832 30.0048 38.5953 29.2126C38.65 29.1465 38.6937 29.0695 38.7484 29.0035C39.0873 28.4864 39.284 27.8592 39.284 27.199C39.2731 25.3394 37.7974 23.854 35.961 23.854Z" fill="#4C739F"/>
<path d="M32.6165 6.04004C29.851 6.04004 27.3587 7.12936 25.4895 8.90088V20.1462C25.5223 20.1462 25.5442 20.1462 25.5769 20.1462C27.4024 20.1462 28.889 18.6497 28.889 16.8012V16.3501C28.9546 14.3255 30.6052 12.719 32.6274 12.719C34.6387 12.719 36.2893 14.3365 36.3658 16.3501C36.3549 18.5507 35.6553 20.7183 34.8683 22.4348C34.4747 23.2711 34.0922 23.9643 33.8189 24.4374C33.6768 24.6685 33.5565 24.8446 33.491 24.9546C33.4472 25.0096 33.4254 25.0536 33.4144 25.0646C33.4035 25.0756 33.4035 25.0756 33.4035 25.0756C33.3926 25.0866 33.3707 25.1196 33.3707 25.1196C33.9829 24.3494 34.912 23.8652 35.9613 23.8652C37.7868 23.8652 39.2735 25.3617 39.2735 27.1993C39.2735 27.8704 39.0767 28.4866 38.7378 29.0038C38.7487 29.0148 38.7487 29.0148 38.7487 29.0148V29.0038L38.7597 28.9928C38.7706 28.9818 38.7706 28.9818 38.7706 28.9707C38.7815 28.9598 38.8034 28.9267 38.8143 28.9047C38.8581 28.8497 38.9018 28.7837 38.9674 28.6847C39.0876 28.5086 39.2516 28.2446 39.4483 27.9254C39.8419 27.2763 40.3556 26.363 40.8694 25.2407C41.8859 23.04 42.9791 19.8601 42.9791 16.306V16.262L42.99 16.218C42.8369 10.5734 38.2569 6.04004 32.6165 6.04004Z" fill="#102640"/>
<path d="M25.4672 8.92289C23.6089 7.14036 21.1167 6.04004 18.3621 6.04004C12.7217 6.04004 8.14161 10.6284 7.99951 16.3611V16.4051V16.4491C7.99951 20.8064 9.57357 24.6795 11.0055 27.3313C11.727 28.6847 12.4703 29.785 13.0168 30.5552C13.2901 30.9403 13.5306 31.2484 13.7055 31.4685C13.7929 31.5785 13.8585 31.6666 13.9132 31.7325C13.935 31.7656 13.9569 31.7876 13.9788 31.8096C13.9897 31.8206 13.9897 31.8206 14.0006 31.8316H14.0115L14.0225 31.8426C15.2249 33.251 17.3236 33.394 18.7009 32.1617C20.0782 30.9293 20.2203 28.8057 19.0179 27.3973C19.0179 27.3973 19.0179 27.3973 19.0179 27.3863C19.0179 27.3753 19.007 27.3753 18.9961 27.3643C18.9742 27.3313 18.9305 27.2872 18.8758 27.2102C18.7665 27.0672 18.5916 26.8471 18.3839 26.55C17.9576 25.9559 17.3892 25.0976 16.8317 24.0523C15.673 21.9177 14.6565 19.2109 14.6455 16.4821C14.7111 14.4245 16.3617 12.796 18.373 12.796C20.4061 12.796 22.0567 14.4465 22.1114 16.5151C22.1223 17.0433 22.2644 17.5384 22.483 17.9786C22.9421 19.2219 24.1117 20.1132 25.5 20.1462V8.90088C25.4781 8.91188 25.4781 8.91188 25.4672 8.92289Z" fill="#4C739F"/>
</svg>
