<svg width="41" height="40" viewBox="0 0 41 40" fill="none" xmlns="http://www.w3.org/2000/svg">
<path fill-rule="evenodd" clip-rule="evenodd" d="M21.4768 37.9186L35.5466 29.7894C36.1328 29.4376 36.5041 28.7928 36.5236 28.1088V11.8504C36.5236 11.1665 36.1523 10.5216 35.5466 10.1699L21.4768 2.04066C20.871 1.68892 20.1284 1.68892 19.5227 2.04066L5.4529 10.1699C4.84712 10.5216 4.47583 11.1469 4.47583 11.8504V28.1088C4.47583 28.7928 4.84712 29.4376 5.4529 29.7894L19.5227 37.9186C20.1284 38.2703 20.871 38.2703 21.4768 37.9186ZM20.8019 16.2083C21.1341 15.8175 21.2904 15.2117 21.3686 14.6841C21.3686 14.6841 21.3491 14.86 20.8801 15.0358C20.2352 15.2703 19.1018 15.114 19.1018 15.114C19.1995 15.5244 19.3558 15.9152 19.5903 16.2083C19.6099 16.2474 19.6685 16.2669 19.7076 16.2669H20.6847C20.7237 16.2669 20.7628 16.2474 20.8019 16.2083ZM8.53052 17.8496H9.25355L10.4456 19.6865L11.6376 17.8496H12.3606V21.7579H11.6767V18.9635L10.4456 20.8004H10.426L9.21446 18.983V21.7775H8.53052V17.8496ZM15.8976 21.8165C15.6045 21.8165 15.3309 21.7579 15.0769 21.6602C14.8228 21.5625 14.6079 21.4062 14.432 21.2303C14.2561 21.0544 14.1193 20.8395 14.0216 20.5854C13.9239 20.3509 13.8653 20.0774 13.8653 19.8038V19.7842C13.8653 19.5107 13.9239 19.2566 14.0216 19.0026C14.1193 18.7681 14.2561 18.5531 14.4515 18.3577C14.6274 18.1819 14.8424 18.0255 15.0964 17.9278C15.3504 17.8106 15.624 17.7715 15.9171 17.7715C16.2103 17.7715 16.4838 17.8301 16.7379 17.9278C16.9919 18.0255 17.2069 18.1819 17.3827 18.3577C17.5586 18.5336 17.6954 18.7486 17.7931 19.0026C17.8908 19.2371 17.9494 19.5107 17.9494 19.7842V19.8038C17.9494 20.0774 17.8908 20.3314 17.7931 20.5854C17.6954 20.8199 17.5586 21.0349 17.3632 21.2303C17.1873 21.4062 16.9724 21.5625 16.7183 21.6602C16.4643 21.7775 16.1907 21.8165 15.8976 21.8165ZM15.8976 21.1912C16.093 21.1912 16.2689 21.1521 16.4252 21.074C16.5816 20.9958 16.7183 20.8981 16.8356 20.7809C16.9528 20.6636 17.031 20.5073 17.1092 20.3509C17.1678 20.1751 17.2069 19.9992 17.2069 19.8233V19.8038C17.2069 19.6084 17.1678 19.4325 17.1092 19.2566C17.0505 19.0808 16.9528 18.944 16.8356 18.8072C16.7183 18.6899 16.5816 18.5922 16.4252 18.5141C16.2689 18.4359 16.093 18.3968 15.8976 18.3968C15.7022 18.3968 15.5263 18.4359 15.37 18.5141C15.2137 18.5922 15.0769 18.6899 14.9596 18.8072C14.8424 18.9244 14.7642 19.0808 14.686 19.2371C14.6274 19.413 14.5883 19.5888 14.5883 19.7647V19.7842C14.5883 19.9797 14.6274 20.1555 14.686 20.3314C14.7447 20.5073 14.8424 20.6441 14.9596 20.7809C15.0769 20.8981 15.2137 20.9958 15.37 21.074C15.5263 21.1521 15.7217 21.1912 15.8976 21.1912ZM21.2519 21.8165C20.9588 21.8165 20.7048 21.7579 20.4703 21.6602C20.2358 21.5625 20.0208 21.4062 19.845 21.2303C19.6691 21.0544 19.5323 20.8395 19.4346 20.5854C19.3369 20.3314 19.2783 20.0774 19.2783 19.8038V19.7842C19.2783 19.5107 19.3369 19.2371 19.4346 19.0026C19.5323 18.7681 19.6691 18.5531 19.845 18.3577C20.0208 18.1819 20.2358 18.0255 20.4898 17.9278C20.7439 17.8301 20.9979 17.7715 21.3106 17.7715C21.4864 17.7715 21.6428 17.791 21.7991 17.8106C21.9033 17.8366 21.9902 17.8627 22.077 17.8887L22.0773 17.8888L22.0773 17.8888L22.0774 17.8888C22.1207 17.9018 22.164 17.9148 22.2095 17.9278C22.3267 17.9864 22.444 18.0451 22.5417 18.1232C22.6394 18.2014 22.7371 18.2796 22.8348 18.3773L22.3853 18.8853C22.229 18.7486 22.0727 18.6313 21.8968 18.5336C21.7209 18.4359 21.5255 18.3968 21.291 18.3968C21.0956 18.3968 20.9393 18.4359 20.7829 18.5141C20.6266 18.5922 20.4898 18.6899 20.3726 18.8072C20.2553 18.9244 20.1772 19.0807 20.099 19.2371L20.099 19.2371C20.0404 19.413 20.0013 19.5888 20.0013 19.7647V19.7842C20.0013 19.9797 20.0404 20.1555 20.099 20.3314C20.1576 20.5073 20.2553 20.6441 20.3726 20.7809C20.4898 20.8981 20.6266 21.0153 20.7829 21.074C20.9393 21.1326 21.1151 21.1912 21.291 21.1912C21.5255 21.1912 21.7405 21.1521 21.8968 21.0544C22.0531 20.9567 22.229 20.8395 22.4049 20.6831L22.8543 21.1326C22.7642 21.2407 22.6741 21.3156 22.5687 21.4032L22.5687 21.4032L22.5417 21.4257C22.4244 21.5234 22.3072 21.582 22.1899 21.6407C22.0727 21.6993 21.9163 21.7579 21.7795 21.7775C21.6037 21.8165 21.4278 21.8165 21.2519 21.8165ZM24.2222 17.8496H24.9062V19.4716H26.7821V17.8496H27.4661V21.7579H26.7821V20.1164H24.9062V21.7579H24.2222V17.8496ZM30.495 17.8301H31.1203L32.8399 21.7579H32.1169L31.7261 20.8199H29.8892L29.4788 21.7579H28.7754L30.495 17.8301ZM31.4721 20.2142L30.8076 18.6508L30.1432 20.2142H31.4721ZM32.9574 22.9891H8.04224V23.2041H32.9574V22.9891ZM22.366 15.6416H32.9574V15.8566H22.3465C22.3465 15.8175 22.3514 15.7833 22.3563 15.7491L22.3563 15.749C22.3612 15.7149 22.366 15.6807 22.366 15.6416ZM8.04224 15.8566V15.6416H18.0083C18.0083 15.6807 18.0132 15.7149 18.0181 15.7491C18.023 15.7833 18.0279 15.8175 18.0279 15.8566H8.04224ZM22.2094 12.9447C22.2094 12.847 22.1312 12.7493 22.014 12.7493H18.3402C18.2425 12.7493 18.1448 12.8275 18.1448 12.9447C18.1448 13.6091 18.2425 15.8954 19.2195 17.0093C19.2586 17.0484 19.2977 17.0679 19.3563 17.0679H20.9978C21.0564 17.0679 21.0955 17.0484 21.1346 17.0093C22.1117 15.915 22.2094 13.6286 22.2094 12.9447ZM20.7633 16.5012H19.6104C19.5518 16.5012 19.5127 16.4817 19.4736 16.4426C18.8092 15.6609 18.731 14.0976 18.7115 13.5505C18.7115 13.4528 18.7896 13.3551 18.9069 13.3551H21.4863C21.5841 13.3551 21.6818 13.4332 21.6818 13.5505C21.6818 14.0976 21.5841 15.6414 20.9196 16.4426C20.861 16.4817 20.8219 16.5012 20.7633 16.5012ZM20.5484 12.3585C20.5484 12.3585 21.2519 11.9481 20.8219 11.2055C20.5679 10.8147 20.4507 10.4825 20.5484 10.3457C20.5191 10.3817 20.4876 10.4179 20.4554 10.4549L20.4554 10.4549C20.2073 10.7397 19.9184 11.0715 20.3334 11.6941C20.4897 11.8699 20.5679 12.2412 20.5484 12.3585ZM19.7667 12.4171C19.7667 12.4171 20.2357 12.1435 19.9426 11.6354C19.7751 11.3936 19.6963 11.1695 19.7565 11.0811L19.7667 11.0687C19.763 11.0725 19.7596 11.0766 19.7565 11.0811C19.741 11.0997 19.7248 11.1184 19.7084 11.1373L19.7082 11.1375C19.5394 11.3324 19.3504 11.5505 19.6299 11.9872C19.7276 12.0849 19.7667 12.3389 19.7667 12.4171ZM21.0272 4.99159C20.8513 4.89389 20.6755 4.83526 20.48 4.83526C20.3042 4.83526 20.1088 4.89389 19.9329 4.99159L7.77817 12.0069C7.44597 12.2024 7.23102 12.5736 7.23102 12.9645V26.9951C7.23102 27.386 7.44597 27.7573 7.77817 27.9527L19.9329 34.968C20.0892 35.0657 20.2846 35.1243 20.48 35.1243C20.6755 35.1243 20.8513 35.0657 21.0272 34.968L33.1819 27.9527C33.5141 27.7573 33.7291 27.386 33.7291 26.9951V12.9645C33.7291 12.5736 33.5141 12.2024 33.1819 12.0069L21.0272 4.99159ZM19.6398 4.48352C19.8938 4.32719 20.1869 4.24902 20.48 4.24902C20.7732 4.24902 21.0663 4.32719 21.3203 4.48352L33.475 11.4989C34.0027 11.792 34.3153 12.3391 34.3153 12.9449V26.9756C34.3153 27.5618 34.0027 28.1285 33.475 28.4217L21.3203 35.437C21.0663 35.5933 20.7732 35.6715 20.48 35.6715C20.1869 35.6715 19.8938 35.5933 19.6398 35.437L7.48505 28.4217C6.95744 28.1285 6.64478 27.5814 6.64478 26.9756V12.9449C6.64478 12.3587 6.95744 11.792 7.48505 11.4989L19.6398 4.48352Z" fill="#4C739F"/>
</svg>
