<svg width="69" height="40" viewBox="0 0 69 40" fill="none" xmlns="http://www.w3.org/2000/svg">
<path d="M58.9998 33.2739C57.2174 33.7202 56.1149 33.2934 55.1259 31.8307L48.0912 22.2448L47.0744 20.9175L38.8592 31.8626C37.9206 33.1794 36.9361 33.7521 35.1842 33.2862L45.7039 19.3777L35.91 6.81418C37.5943 6.49167 38.7582 6.65564 39.7916 8.14151L47.088 17.8469L54.438 8.19436C55.3795 6.87752 56.392 6.37729 58.0825 6.86232L54.2851 11.8213L49.1401 18.4195C48.5275 19.1735 48.6116 19.6897 49.1754 20.4176L58.9998 33.2739ZM10.0123 19.1453L10.8726 14.9765C13.2154 6.72658 22.8163 3.2984 29.4376 8.39597C33.307 11.3941 34.2688 15.6353 34.0773 20.3861H12.2661C11.9387 28.9375 18.1877 34.0985 26.1544 31.4655C28.9488 30.5411 30.5949 28.3855 31.4188 25.6893C31.837 24.338 32.5287 24.1267 33.8182 24.5129C33.16 27.8853 31.6746 30.7025 28.5354 32.4656C23.8454 35.1047 17.1502 34.2512 13.6288 30.5834C11.5308 28.455 10.6642 25.7588 10.2754 22.875C10.214 22.3983 10.0916 21.9444 9.99976 21.4876C10.0078 20.7072 10.0123 19.9271 10.0123 19.1467V19.1453ZM12.3058 18.5723H32.016C31.8874 12.3888 27.9783 7.99672 22.6355 7.95944C16.771 7.91419 12.5598 12.2017 12.3055 18.5723H12.3058Z" fill="#4C739F"/>
</svg>
