<svg width="59" height="40" viewBox="0 0 59 40" fill="none" xmlns="http://www.w3.org/2000/svg">
<path fill-rule="evenodd" clip-rule="evenodd" d="M47.7489 28.1231V29.8584C47.7608 29.9595 47.7364 30.0616 47.6801 30.1465C47.6683 30.1336 47.6537 30.121 47.6388 30.1082L47.6388 30.1082L47.6219 30.0936C47.6153 30.0877 47.6088 30.0817 47.6026 30.0756C47.1495 29.7436 46.6279 29.5171 46.076 29.4126C44.5908 29.0556 43.0806 28.8062 41.5589 28.6657C41.1321 28.6192 40.7002 28.6634 40.2916 28.7955C39.8829 28.9275 39.5069 29.1444 39.1879 29.4319C38.0082 30.5002 36.4732 31.0914 34.8816 31.0905H24.8728C23.2813 31.0915 21.7462 30.5009 20.5658 29.4333C20.2463 29.1473 19.87 28.932 19.4615 28.8015C19.0531 28.6709 18.6216 28.6281 18.1955 28.6757C16.6731 28.8162 15.1629 29.0671 13.6777 29.4255C13.0953 29.5508 12.5463 29.7988 12.0672 30.153C12.0115 30.0663 11.9893 29.9623 12.0048 29.8605V28.1253C12.0048 27.8049 12.5402 27.501 13.5007 27.2243V25.0554C13.5021 21.71 14.5439 18.4479 16.4817 15.721C18.429 12.9823 21.1723 10.9094 24.3388 9.78412L24.4055 9.38058C24.4413 9.14835 24.5438 8.93189 24.6993 8.75557C24.8556 8.57853 25.0584 8.44951 25.2856 8.38285C28.311 7.50324 31.5244 7.50324 34.5498 8.38285C34.7757 8.44987 34.9782 8.57931 35.1339 8.75628C35.2888 8.93258 35.3903 9.14939 35.4264 9.3813L35.4959 9.81422C38.6432 10.9503 41.3665 13.0242 43.2985 15.7561C45.2237 18.4827 46.2559 21.7289 46.2559 25.0561L46.2322 27.2157C47.2063 27.4931 47.7489 27.8006 47.7489 28.1231ZM26.044 19.2842L29.8758 12.8176V21.6423L26.044 19.2842ZM29.8767 22.9221L26.0449 20.5654L29.8767 25.9985V22.9221ZM29.877 21.6398V12.8193L33.708 19.2859L29.877 21.6398ZM29.877 25.9962V22.9206L33.708 20.561C33.708 20.5628 31.2678 24.0236 30.2819 25.4219C30.0441 25.7592 29.8909 25.9764 29.877 25.9962Z" fill="#4C739F"/>
<path d="M20.5895 26.2061C20.576 25.8066 20.5688 25.4068 20.568 25.007C20.573 18.9747 21.9958 13.5647 24.3396 9.78662C21.1732 10.9117 18.4299 12.9843 16.4824 15.7228C14.5448 18.449 13.5028 21.7103 13.5007 25.055V27.2239C15.8285 26.6737 18.2009 26.3331 20.5895 26.2061Z" fill="#4C739F"/>
<path d="M46.2545 25.0553C46.2577 21.2838 44.9346 17.6312 42.5166 14.7368C43.5658 18.0575 44.0887 21.522 44.0662 25.0044C44.0662 25.5921 44.0505 26.1727 44.0232 26.7497C44.7657 26.8639 45.5012 27.0189 46.2265 27.2142L46.2545 25.0553Z" fill="#4C739F"/>
<path d="M46.076 29.4189C44.5902 29.0605 43.08 28.8096 41.5583 28.6691C41.1318 28.6219 40.7001 28.6653 40.2915 28.7965C39.8829 28.9277 39.5066 29.1437 39.1872 29.4303C38.0072 30.4985 36.472 31.0895 34.8802 31.0882H24.8757C23.2849 31.0888 21.7506 30.4982 20.5709 29.431C20.2521 29.1431 19.8761 28.9259 19.4675 28.7936C19.0588 28.6613 18.6268 28.6169 18.1998 28.6634C16.6774 28.8039 15.1679 29.0547 13.6821 29.4124C13.1005 29.5395 12.552 29.7873 12.0723 30.1399C12.832 31.2925 20.5171 32.5016 29.8808 32.5016C39.2453 32.5016 46.9268 31.2882 47.688 30.1406C47.6615 30.1177 47.6321 30.0955 47.6099 30.0704C47.1513 29.7457 46.6281 29.5235 46.076 29.4189Z" fill="#102640"/>
</svg>
