<svg width="41" height="40" viewBox="0 0 41 40" fill="none" xmlns="http://www.w3.org/2000/svg">
<path fill-rule="evenodd" clip-rule="evenodd" d="M8.02759 3H32.9729C34.6449 3 36.0002 4.35539 36.0002 6.02734V30.9727C36.0002 32.6446 34.6449 34 32.9729 34H8.02759C6.35563 34 5.00024 32.6446 5.00024 30.9727V6.02734C5.00024 4.35539 6.35563 3 8.02759 3ZM24.1899 30.6993V27.6683C24.7395 28.1293 25.3365 28.475 25.9808 28.7054C26.6252 28.9359 27.2759 29.0511 27.9329 29.0511C28.3182 29.0511 28.6546 29.0164 28.9421 28.9469C29.2295 28.8775 29.4695 28.7812 29.6622 28.6581C29.8549 28.5349 29.9986 28.3897 30.0934 28.2224C30.1881 28.055 30.2355 27.8735 30.2355 27.6778C30.2355 27.4125 30.1597 27.1757 30.0081 26.9674C29.8564 26.759 29.6495 26.5664 29.3874 26.3896C29.1253 26.2128 28.8141 26.0423 28.454 25.8781C28.094 25.7139 27.7054 25.5466 27.2885 25.3761C26.2272 24.934 25.436 24.3941 24.9148 23.7564C24.3937 23.1186 24.1331 22.3482 24.1331 21.4452C24.1331 20.7379 24.2752 20.1302 24.5595 19.6219C24.8438 19.1135 25.2306 18.6952 25.7202 18.3668C26.2099 18.0385 26.7768 17.7969 27.4212 17.6422C28.0655 17.4875 28.7478 17.4102 29.468 17.4102C30.1755 17.4102 30.8025 17.4528 31.3489 17.538C31.8953 17.6233 32.3992 17.7543 32.8603 17.9311V20.7632C32.6329 20.6053 32.3849 20.4664 32.1165 20.3464C31.8479 20.2265 31.5716 20.127 31.2873 20.0481C31.003 19.9692 30.7203 19.9107 30.4392 19.8728C30.1581 19.835 29.8912 19.816 29.6385 19.816C29.291 19.816 28.9752 19.8492 28.6909 19.9155C28.4066 19.9818 28.1666 20.0749 27.9708 20.1949C27.775 20.3149 27.6233 20.4585 27.5159 20.6259C27.4085 20.7932 27.3548 20.9811 27.3548 21.1894C27.3548 21.4168 27.4149 21.6204 27.5349 21.8004C27.6549 21.9804 27.8254 22.1509 28.0466 22.3119C28.2677 22.4729 28.5361 22.6308 28.852 22.7855C29.1679 22.9402 29.5248 23.0996 29.9228 23.2638C30.4661 23.4911 30.9541 23.7326 31.3868 23.9884C31.8195 24.2441 32.1907 24.5331 32.5002 24.8551C32.8098 25.1772 33.0466 25.545 33.2109 25.9586C33.3752 26.3722 33.4573 26.8537 33.4573 27.4031C33.4573 28.1608 33.3135 28.797 33.0261 29.3116C32.7387 29.8263 32.3486 30.2431 31.8559 30.5619C31.3631 30.8808 30.7898 31.1097 30.136 31.2486C29.4821 31.3876 28.792 31.457 28.0655 31.457C27.3201 31.457 26.611 31.3939 25.9382 31.2676C25.2654 31.1413 24.6826 30.9519 24.1899 30.6993ZM22.9827 20.2003H19.0943V31.2754H16.0141V20.2003H12.1448V17.7129H22.9827V20.2003Z" fill="#4C729F"/>
</svg>
