<svg width="33" height="40" viewBox="0 0 33 40" fill="none" xmlns="http://www.w3.org/2000/svg">
<path d="M19.1969 6.00956L27.8729 6L13.3169 20.5486L9.52328 24.3209L5.20703 19.9994L19.1969 6.00956ZM19.1161 18.9997C19.2287 18.851 19.4359 18.9243 19.5931 18.9052L27.8655 18.9073L20.3261 26.4392L15.9876 22.1272L19.1161 18.9997Z" fill="#4C739F"/>
<path d="M11.6631 26.4464L15.9878 22.127L20.3264 26.439L20.3444 26.4581L15.9889 30.7733L11.6631 26.4464Z" fill="#4C739F"/>
<path d="M15.9883 30.7737L20.3438 26.4585L27.8683 33.9904C25.034 33.9968 22.2008 33.9883 19.3676 33.9947C19.2061 34.0308 19.1062 33.8831 19.0032 33.7918L15.9883 30.7737Z" fill="#4C739F"/>
</svg>
