<svg width="34" height="45" viewBox="0 0 34 45" fill="none" xmlns="http://www.w3.org/2000/svg">
<g clip-path="url(#clip0_1291_34307)">
<path fill-rule="evenodd" clip-rule="evenodd" d="M32.3611 13.1841C32.3725 13.2264 32.3783 13.2701 32.3784 13.3139V20.1303C32.3784 20.2178 32.3554 20.3037 32.3118 20.3794C32.2682 20.4551 32.2054 20.5179 32.1299 20.5615L26.4387 23.8553V30.3841C26.4387 30.5618 26.3447 30.7258 26.1915 30.8152L14.3114 37.69C14.2843 37.7055 14.2546 37.7155 14.2249 37.7261C14.2138 37.7298 14.2033 37.7366 14.1915 37.7397C14.1085 37.7617 14.0212 37.7617 13.9382 37.7397C13.9246 37.736 13.9122 37.7285 13.8992 37.7236C13.872 37.7136 13.8436 37.7049 13.8177 37.69L1.94009 30.8152C1.86464 30.7717 1.80194 30.7089 1.75832 30.6332C1.71471 30.5575 1.69171 30.4716 1.69165 30.3841V9.93493C1.69165 9.8902 1.69783 9.84672 1.70895 9.80447C1.71266 9.79018 1.72131 9.77714 1.72626 9.76285C1.73553 9.73675 1.74418 9.71004 1.75778 9.68581C1.76705 9.66966 1.78064 9.65661 1.79177 9.6417C1.80598 9.62182 1.81896 9.60132 1.83565 9.58393C1.84986 9.56964 1.8684 9.55908 1.88447 9.54665C1.90239 9.53174 1.91846 9.51559 1.93885 9.50378L7.87856 6.06639C7.95376 6.02289 8.039 6 8.12577 6C8.21253 6 8.29777 6.02289 8.37297 6.06639L14.3121 9.50378H14.3133C14.3331 9.51621 14.3498 9.53174 14.3677 9.54603C14.3837 9.55846 14.4017 9.56964 14.4159 9.58331C14.4332 9.60132 14.4455 9.62182 14.4604 9.6417C14.4709 9.65661 14.4851 9.66966 14.4938 9.68581C14.508 9.71066 14.516 9.73675 14.5259 9.76285C14.5308 9.77714 14.5395 9.79018 14.5432 9.80509C14.5546 9.84743 14.5604 9.89108 14.5605 9.93493V22.7073L19.5095 19.8427V13.3133C19.5095 13.2698 19.5157 13.2257 19.5268 13.1841C19.5312 13.1692 19.5392 13.1561 19.5441 13.1418C19.554 13.1157 19.5627 13.089 19.5763 13.0648C19.5856 13.0487 19.5991 13.0356 19.6097 13.0207C19.6245 13.0008 19.6368 12.9803 19.6542 12.9629C19.6684 12.9486 19.6863 12.9381 19.7024 12.9256C19.7209 12.9107 19.737 12.8946 19.7567 12.8828L25.6971 9.44539C25.7722 9.40183 25.8575 9.3789 25.9443 9.3789C26.031 9.3789 26.1163 9.40183 26.1915 9.44539L32.1306 12.8828C32.1516 12.8952 32.1676 12.9107 32.1862 12.925C32.2016 12.9374 32.2196 12.9486 32.2338 12.9623C32.2511 12.9803 32.2634 13.0008 32.2783 13.0207C32.2894 13.0356 32.303 13.0487 32.3116 13.0648C32.3259 13.089 32.3339 13.1157 32.3438 13.1418C32.3493 13.1561 32.3574 13.1692 32.3611 13.1841ZM31.3883 19.8427V14.1744L29.31 15.3771L26.4387 17.039V22.7073L31.389 19.8427H31.3883ZM25.4492 30.0964V24.4244L22.6249 26.0459L14.5599 30.673V36.3984L25.4492 30.0964ZM2.6817 10.7954V30.0964L13.5698 36.3978V30.6736L7.88165 27.4375L7.8798 27.4362L7.87733 27.435C7.85817 27.4238 7.8421 27.4077 7.82418 27.394C7.80873 27.3816 7.7908 27.3716 7.77721 27.358L7.77597 27.3561C7.7599 27.3406 7.74878 27.3213 7.73518 27.3039C7.72282 27.2871 7.70799 27.2729 7.6981 27.2555L7.69748 27.2536C7.68636 27.235 7.67956 27.2126 7.67153 27.1915C7.66349 27.1728 7.65299 27.1554 7.64804 27.1356C7.64186 27.1119 7.64063 27.0865 7.63816 27.0622C7.63568 27.0436 7.63074 27.025 7.63074 27.0063V27.0051V13.66L4.76008 11.9975L2.6817 10.7954ZM8.12638 7.07158L3.17797 9.93493L8.12515 12.7983L13.0729 9.93431L8.12515 7.07158H8.12638ZM10.6998 24.9413L13.5704 23.2801V10.7954L11.4921 11.9981L8.62079 13.66V26.1447L10.6998 24.9413ZM25.9443 10.4506L20.9965 13.3139L25.9443 16.1773L30.8915 13.3133L25.9443 10.4506ZM25.4492 17.039L22.578 15.3771L20.4996 14.1744V19.8427L23.3703 21.5039L25.4492 22.7073V17.039ZM14.0642 29.8125L21.3215 25.6477L24.9493 23.5665L20.0052 20.705L14.3127 23.9995L9.12447 27.002L14.0642 29.8125Z" fill="#4C739F"/>
</g>
<defs>
<clipPath id="clip0_1291_34307">
<rect width="30.9006" height="32.3051" fill="white" transform="translate(1.69165 6)"/>
</clipPath>
</defs>
</svg>
