<svg width="29" height="40" viewBox="0 0 29 40" fill="none" xmlns="http://www.w3.org/2000/svg">
<path d="M4.00049 28.1671L7.53467 5.55225C7.57787 5.2749 7.79358 5.05626 8.07031 5.00925C8.34705 4.96224 8.62282 5.09749 8.75515 5.34503L12.4101 12.1621L13.867 9.38826C13.9798 9.17378 14.2022 9.03949 14.4446 9.03949C14.6869 9.03949 14.9094 9.17378 15.0222 9.38826L24.8856 28.167L4.00049 28.1671Z" fill="#3C628C"/>
<path d="M16.2102 19.3576L12.4084 12.1587L4.00049 28.1669L16.2102 19.3576Z" fill="#102640"/>
<path d="M24.8857 28.1674L22.1788 11.4167C22.1379 11.1762 21.9663 10.9786 21.7338 10.9041C21.5013 10.8296 21.2469 10.8916 21.0742 11.0641L4.00049 28.1671L13.4478 33.4651C14.0411 33.7964 14.7636 33.7964 15.3568 33.4651L24.8857 28.1671V28.1674Z" fill="#4C739F"/>
<path d="M22.1514 11.4196C22.1106 11.1791 21.9395 10.9815 21.7079 10.9074C21.4762 10.8334 21.2227 10.8949 21.0506 11.0674L17.6735 14.463L15.0183 9.39236C14.9059 9.17797 14.6842 9.04372 14.4427 9.04372C14.2013 9.04372 13.9796 9.17797 13.8672 9.39236L12.4152 12.165L8.77305 5.35086C8.64095 5.10337 8.36583 4.96835 8.08997 5.01574C7.81411 5.06313 7.59937 5.28214 7.55685 5.55964L4.03662 28.1629L13.4509 33.457C14.0421 33.7881 14.7621 33.7881 15.3533 33.457L24.8489 28.1629L22.1514 11.4196Z" fill="url(#paint0_linear_372_6513)"/>
<defs>
<linearGradient id="paint0_linear_372_6513" x1="-68.5982" y1="493.463" x2="2528.59" y2="1863.45" gradientUnits="userSpaceOnUse">
<stop stop-color="white" stop-opacity="0.1"/>
<stop offset="0.14" stop-color="white" stop-opacity="0.08"/>
<stop offset="0.61" stop-color="white" stop-opacity="0.02"/>
<stop offset="1" stop-color="white" stop-opacity="0"/>
</linearGradient>
</defs>
</svg>
