<svg width="56" height="45" viewBox="0 0 56 45" fill="none" xmlns="http://www.w3.org/2000/svg">
<path fill-rule="evenodd" clip-rule="evenodd" d="M41.7718 18.9867C42.1734 18.9867 42.5587 19.1471 42.8434 19.4329C43.1281 19.7188 43.289 20.1067 43.291 20.5119V36.4736C43.291 37.314 42.6173 38 41.7792 38H14.804C14.4028 38 14.0179 37.8392 13.7342 37.5529C13.4504 37.2667 13.291 36.8784 13.291 36.4736V7.52644C13.291 6.68721 13.9647 6.00126 14.8053 6.00126H18.0841C18.9159 6.00126 19.5959 6.67967 19.5959 7.52644V17.5507C19.6181 17.9081 19.7626 18.2466 20.0047 18.5085C20.2468 18.7704 20.5715 18.9394 20.9233 18.9867H23.3765C24.12 18.9176 24.7389 18.307 24.78 17.5507V7.52519C24.78 6.68596 25.4524 6 26.2917 6H29.5705C30.4024 6 31.0836 6.67842 31.0836 7.52519V17.4452C31.0836 18.2291 31.6539 18.895 32.4035 18.9854H41.773L41.7718 18.9867ZM37.4543 26.8099C37.4543 25.9707 36.7818 25.2834 35.9425 25.2834H32.6624C31.8306 25.2834 31.1494 25.9631 31.1494 26.8099V29.9319C31.1494 30.7711 31.8231 31.4571 32.6624 31.4571H35.9412C36.7731 31.4571 37.453 30.7786 37.453 29.9319L37.4543 26.8099Z" fill="#4C729F"/>
</svg>