<svg width="41" height="40" viewBox="0 0 41 40" fill="none" xmlns="http://www.w3.org/2000/svg">
<path fill-rule="evenodd" clip-rule="evenodd" d="M36.6398 19.5001C36.6398 28.2367 29.5565 35.32 20.8199 35.32C12.0833 35.32 5 28.2367 5 19.5001C5 10.7635 12.0833 3.68018 20.8199 3.68018C29.5584 3.68018 36.6398 10.7635 36.6398 19.5001ZM12.8048 20.0316L12.8731 19.9243L16.9885 13.4863C17.0486 13.3921 17.19 13.4018 17.2355 13.5042C17.923 15.045 18.5163 16.9613 18.2384 18.1543C18.1197 18.6452 17.7947 19.3099 17.4289 19.9243C17.3818 20.0137 17.3298 20.1015 17.2745 20.186C17.2485 20.225 17.2046 20.2478 17.1575 20.2478H12.9251C12.8113 20.2478 12.7447 20.1243 12.8048 20.0316ZM31.1485 22.2468V21.2278C31.1485 21.1335 31.0576 21.0652 30.9681 21.0912L26.1555 22.4825C26.1295 22.489 26.1067 22.5036 26.0888 22.5231C25.5734 23.0925 25.1353 23.4746 25.0193 23.5759L25.0112 23.5829C24.7122 23.8364 24.3416 23.9746 23.9515 23.9746H22.2091V22.1981H23.5939C23.6297 22.1981 23.6638 22.1851 23.6898 22.1623L23.8686 21.9982C23.945 21.9283 24.036 21.8438 24.1449 21.7348C24.1542 21.7256 24.1636 21.7162 24.173 21.7068C24.2303 21.6498 24.2914 21.5888 24.3513 21.5219C24.4229 21.452 24.4928 21.374 24.5577 21.2976C24.6667 21.1806 24.7707 21.0587 24.8796 20.9303C24.9576 20.8458 25.0291 20.7499 25.099 20.654C25.177 20.563 25.2534 20.4606 25.3249 20.3631C25.3516 20.3239 25.3799 20.2844 25.4088 20.244C25.4364 20.2055 25.4646 20.1662 25.4923 20.1258C25.5443 20.0477 25.5964 19.9648 25.6402 19.8868C25.7768 19.6755 25.8922 19.4496 25.9897 19.2237C26.0345 19.1269 26.0702 19.0251 26.105 18.926C26.1094 18.9136 26.1137 18.9012 26.1181 18.8889C26.1571 18.7735 26.1896 18.6646 26.214 18.5492C26.2725 18.2777 26.2855 18.0079 26.2595 17.7381C26.253 17.6536 26.2465 17.5707 26.227 17.4927V17.4797C26.2205 17.4244 26.2075 17.3627 26.1896 17.3058C26.1311 17.0425 26.0401 16.7792 25.9247 16.5207C25.8857 16.4248 25.8402 16.3273 25.7963 16.2379C25.6923 16.0445 25.5834 15.8511 25.4598 15.6642C25.435 15.6247 25.4077 15.5847 25.3803 15.5448C25.3593 15.514 25.3382 15.4833 25.3184 15.4529C25.2402 15.3322 25.1523 15.2159 25.0669 15.103C25.0476 15.0775 25.0285 15.0522 25.0096 15.027C24.9592 14.9609 24.9041 14.8948 24.8486 14.8282C24.8181 14.7917 24.7876 14.755 24.7577 14.7182C24.6732 14.6158 24.5903 14.5183 24.5058 14.4224C24.2034 14.0811 23.8865 13.7723 23.6037 13.509C23.5517 13.4569 23.4948 13.4049 23.4363 13.3546C23.2169 13.1546 23.0169 12.9807 22.8495 12.8458C22.7992 12.8071 22.7541 12.769 22.7121 12.7335C22.6835 12.7094 22.6564 12.6865 22.6301 12.6654C22.5794 12.6276 22.5353 12.5941 22.4984 12.5659C22.4749 12.5481 22.4543 12.5324 22.4367 12.5191C22.4237 12.5094 22.4091 12.5029 22.3944 12.498L22.2091 12.446V10.9117C22.2091 10.6613 22.1084 10.4371 21.9475 10.2729C21.7865 10.1087 21.5622 10.008 21.3152 10.008C20.8211 10.008 20.4213 10.4127 20.4213 10.9117V11.9454L20.3286 11.9194L20.0767 11.8478L19.8475 11.7845C19.8459 11.7845 19.8442 11.7828 19.841 11.7828H19.8361L18.097 11.3115C18.0206 11.2903 17.9556 11.3732 17.9946 11.4431L18.2725 11.9567C18.2883 11.9962 18.3083 12.0357 18.3288 12.0763C18.3421 12.1025 18.3557 12.1292 18.3684 12.1567C18.414 12.2477 18.4595 12.3436 18.5033 12.4395C18.5424 12.524 18.5814 12.6069 18.6269 12.6979C18.646 12.7407 18.6655 12.784 18.6853 12.8279C18.7579 12.9892 18.8343 13.1589 18.9097 13.3416L18.9097 13.3416C18.9747 13.496 19.0397 13.6504 19.0966 13.8113C19.2526 14.216 19.4005 14.6483 19.5289 15.0921C19.5609 15.1914 19.5864 15.2875 19.6123 15.3849C19.6233 15.4262 19.6343 15.4677 19.646 15.5098L19.6638 15.5878C19.7158 15.7942 19.7614 15.999 19.7939 16.2054C19.8199 16.3468 19.8442 16.4817 19.8572 16.6182C19.8768 16.7726 19.8963 16.9271 19.9028 17.0815C19.9158 17.2229 19.9223 17.3708 19.9223 17.5122C19.9223 17.873 19.8898 18.2208 19.8134 18.5492C19.8086 18.5668 19.8038 18.5847 19.799 18.6027C19.7776 18.6826 19.7554 18.7654 19.7288 18.845C19.7048 18.9302 19.6737 19.0154 19.6414 19.1039C19.63 19.1353 19.6184 19.167 19.6069 19.1993C19.6048 19.2051 19.6026 19.2108 19.6005 19.2166C19.5766 19.281 19.5523 19.3465 19.5224 19.4106C19.3615 19.7974 19.1616 20.1827 18.9552 20.5435C18.6529 21.0782 18.3489 21.5479 18.136 21.8503C18.123 21.8698 18.1103 21.8884 18.098 21.9063C18.0828 21.9286 18.0683 21.9498 18.0548 21.9705C17.9881 22.0648 18.0564 22.1981 18.1718 22.1981H20.4213V23.9746H18.1457C17.5346 23.9746 16.969 23.6284 16.6959 23.0741C16.5545 22.7962 16.4993 22.4906 16.5318 22.1916C16.5399 22.1022 16.4733 22.0177 16.3823 22.0177H11.7858C11.7077 22.0177 11.6444 22.081 11.6444 22.1591V22.2533C11.6444 25.1855 14.0125 27.5617 16.9349 27.5617H25.1803C26.7259 27.5617 27.6035 26.1533 28.4661 24.7689C28.7066 24.383 28.9459 23.999 29.1981 23.6479C29.6516 23.0172 30.7422 22.5166 31.0608 22.3801C31.1128 22.3574 31.1485 22.3053 31.1485 22.2468Z" fill="#4C739F"/>
</svg>
