<svg width="45" height="40" viewBox="0 0 45 40" fill="none" xmlns="http://www.w3.org/2000/svg">
<path d="M34.8385 5.41725C31.305 3.15666 26.6533 3.69525 22.5045 6.36457C18.3687 3.69525 13.714 3.15666 10.1849 5.41725C4.60226 8.98962 3.92353 18.1899 8.67036 25.9676C12.1692 31.7017 17.6409 35.0616 22.5117 34.9996C27.3824 35.0616 32.8541 31.7017 36.353 25.9676C41.0941 18.1899 40.4211 8.98962 34.8385 5.41725ZM11.2369 24.3253C10.2581 22.7365 9.51961 21.0053 9.04647 19.1903C8.62611 17.6148 8.46539 15.9786 8.57093 14.3489C8.78276 11.4745 9.92552 9.23605 11.7874 8.04525C13.6492 6.85446 16.1105 6.78216 18.7318 7.84753C19.1252 8.00836 19.5143 8.19429 19.9005 8.39939C18.4439 9.75939 17.1773 11.3185 16.1365 13.0327C13.2544 17.7546 12.3753 23.0091 13.3812 27.1983C12.5791 26.3123 11.8611 25.3504 11.2369 24.3253ZM35.9783 19.1888C35.5046 21.0036 34.7661 22.7347 33.7879 24.3238C33.1631 25.3503 32.4452 26.3142 31.6436 27.2027C32.5429 23.4473 31.9318 18.8465 29.727 14.5319C29.6918 14.4608 29.6424 14.3981 29.5821 14.3478C29.5217 14.2975 29.4517 14.2608 29.3766 14.2399C29.3015 14.2191 29.223 14.2146 29.1461 14.2267C29.0691 14.2389 28.9956 14.2675 28.9301 14.3106L22.0563 18.7078C21.9936 18.7478 21.9392 18.8002 21.8963 18.8618C21.8534 18.9234 21.8228 18.993 21.8062 19.0668C21.7896 19.1405 21.7873 19.2169 21.7996 19.2915C21.8119 19.3661 21.8384 19.4375 21.8776 19.5016L22.8864 21.1528C22.9253 21.217 22.9763 21.2726 23.0363 21.3165C23.0964 21.3605 23.1643 21.3918 23.2362 21.4088C23.3081 21.4258 23.3825 21.4281 23.4553 21.4156C23.5281 21.4031 23.5977 21.3759 23.6602 21.3358L28.1159 18.485C28.26 18.9276 28.4041 19.3703 28.5122 19.813C28.9325 21.3865 29.0937 23.0207 28.9892 24.6485C28.7774 27.5214 27.6346 29.7599 25.7728 30.9521C24.8125 31.5534 23.7121 31.8795 22.5866 31.8965H22.444C21.3184 31.8799 20.218 31.5537 19.2578 30.9521C17.3945 29.7599 16.2517 27.5214 16.0399 24.6485C15.935 23.0188 16.0957 21.3827 16.5155 19.8071C17.4812 16.1619 19.4776 12.8902 22.2537 10.4032C23.4509 9.32722 24.8145 8.46255 26.2887 7.84458C28.9028 6.77921 31.3684 6.85004 33.2317 8.0423C35.095 9.23457 36.2363 11.4715 36.4481 14.346C36.555 15.9758 36.3962 17.6124 35.9783 19.1888Z" fill="#5E81A8"/>
</svg>
