<svg width="55" height="40" viewBox="0 0 55 40" fill="none" xmlns="http://www.w3.org/2000/svg">
<path d="M45.8233 17.0894C45.7198 17.0031 44.7885 16.296 42.7879 16.296C42.2705 16.296 41.7359 16.3478 41.2185 16.434C40.8391 13.7953 38.6488 12.5191 38.5626 12.4501L38.0279 12.1396L37.683 12.6398C37.2518 13.3124 36.9242 14.0712 36.7344 14.8473C36.3723 16.3478 36.5965 17.762 37.3553 18.9692C36.4413 19.4866 34.9581 19.6073 34.6476 19.6246H10.1578C9.51964 19.6246 9.00225 20.142 9.00225 20.7801C8.96776 22.9186 9.32993 25.0572 10.0715 27.075C10.9166 29.2826 12.1756 30.921 13.7967 31.9213C15.6249 33.0423 18.6085 33.6804 21.9715 33.6804C23.4892 33.6804 25.0069 33.5424 26.5073 33.2665C28.5942 32.8871 30.5947 32.1627 32.4401 31.1107C33.9578 30.2311 35.3202 29.1101 36.4757 27.7994C38.4246 25.6091 39.5801 23.1601 40.4252 20.987H40.7701C42.8914 20.987 44.2021 20.142 44.9265 19.4176C45.4094 18.9692 45.7716 18.4173 46.0303 17.7965L46.1855 17.3481L45.8233 17.0894Z" fill="#4C739F"/>
<path d="M12.4338 18.9173H15.7106C15.8658 18.9173 16.0038 18.7965 16.0038 18.6241V15.6922C16.0038 15.537 15.8831 15.399 15.7106 15.399H12.4338C12.2786 15.399 12.1406 15.5197 12.1406 15.6922V18.6241C12.1579 18.7965 12.2786 18.9173 12.4338 18.9173ZM16.9524 18.9173H20.2292C20.3844 18.9173 20.5224 18.7965 20.5224 18.6241V15.6922C20.5224 15.537 20.4016 15.399 20.2292 15.399H16.9524C16.7972 15.399 16.6592 15.5197 16.6592 15.6922V18.6241C16.6764 18.7965 16.7972 18.9173 16.9524 18.9173ZM21.5572 18.9173H24.834C24.9892 18.9173 25.1272 18.7965 25.1272 18.6241V15.6922C25.1272 15.537 25.0064 15.399 24.834 15.399H21.5572C21.4019 15.399 21.264 15.5197 21.264 15.6922V18.6241C21.264 18.7965 21.3847 18.9173 21.5572 18.9173ZM26.093 18.9173H29.3698C29.525 18.9173 29.663 18.7965 29.663 18.6241V15.6922C29.663 15.537 29.5422 15.399 29.3698 15.399H26.093C25.9377 15.399 25.7998 15.5197 25.7998 15.6922V18.6241C25.7998 18.7965 25.9377 18.9173 26.093 18.9173ZM16.9524 14.7264H20.2292C20.3844 14.7264 20.5224 14.5884 20.5224 14.4332V11.5013C20.5224 11.3461 20.4016 11.2081 20.2292 11.2081H16.9524C16.7972 11.2081 16.6592 11.3288 16.6592 11.5013V14.4332C16.6764 14.5884 16.7972 14.7264 16.9524 14.7264ZM21.5572 14.7264H24.834C24.9892 14.7264 25.1272 14.5884 25.1272 14.4332V11.5013C25.1272 11.3461 25.0064 11.2081 24.834 11.2081H21.5572C21.4019 11.2081 21.264 11.3288 21.264 11.5013V14.4332C21.264 14.5884 21.3847 14.7264 21.5572 14.7264ZM26.093 14.7264H29.3698C29.525 14.7264 29.663 14.5884 29.663 14.4332V11.5013C29.663 11.3461 29.525 11.2081 29.3698 11.2081H26.093C25.9377 11.2081 25.7998 11.3288 25.7998 11.5013V14.4332C25.7998 14.5884 25.9377 14.7264 26.093 14.7264ZM26.093 10.5183H29.3698C29.525 10.5183 29.663 10.3975 29.663 10.2251V7.29319C29.663 7.13797 29.525 7 29.3698 7H26.093C25.9377 7 25.7998 7.12073 25.7998 7.29319V10.2251C25.7998 10.3803 25.9377 10.5183 26.093 10.5183ZM30.6632 18.9173H33.9401C34.0953 18.9173 34.2332 18.7965 34.2332 18.6241V15.6922C34.2332 15.537 34.1125 15.399 33.9401 15.399H30.6632C30.508 15.399 30.3701 15.5197 30.3701 15.6922V18.6241C30.3873 18.7965 30.508 18.9173 30.6632 18.9173Z" fill="#4C739F"/>
</svg>
