<svg width="48" height="40" viewBox="0 0 48 40" fill="none" xmlns="http://www.w3.org/2000/svg">
<path fill-rule="evenodd" clip-rule="evenodd" d="M40.8602 19.6802C40.8602 10.467 33.3932 3 24.18 3C14.9668 3 7.4998 10.467 7.4998 19.6802C7.4998 28.8934 14.9668 36.3604 24.18 36.3604C33.3932 36.3604 40.8602 28.8934 40.8602 19.6802ZM30.2593 15.8816C26.9037 12.6042 21.4566 12.6042 18.101 15.8816L17.6579 16.3182C17.4885 16.4811 17.4885 16.7482 17.6579 16.9111L19.0393 18.2598C19.124 18.3445 19.2608 18.3445 19.3455 18.2598L19.9384 17.6799C22.2841 15.3929 26.0762 15.3929 28.4219 17.6799L28.9757 18.2208C29.0604 18.3055 29.1972 18.3055 29.2819 18.2208L30.6633 16.872C30.8327 16.7091 30.8327 16.442 30.6633 16.2791L30.2593 15.8816ZM34.3512 19.8692L33.1197 18.6703C32.9503 18.5074 32.6766 18.5074 32.4942 18.6703L28.5587 22.5146C28.5196 22.5537 28.4479 22.5537 28.4088 22.5146L24.4734 18.6703C24.3105 18.5074 24.0368 18.5074 23.8674 18.6703L19.9319 22.5146C19.8928 22.5537 19.8212 22.5537 19.7821 22.5146L15.8466 18.6703C15.6837 18.5074 15.41 18.5074 15.2406 18.6703L14.0092 19.8692C13.8397 20.0321 13.8397 20.2993 14.0092 20.4621L19.5736 25.8767C19.7365 26.0396 20.0101 26.0396 20.1795 25.8767L24.115 22.0324C24.1541 21.9933 24.2258 21.9933 24.2649 22.0324L28.2003 25.8767C28.3632 26.0396 28.6369 26.0396 28.8063 25.8767L34.3512 20.4621C34.5206 20.2993 34.5206 20.0321 34.3512 19.8692Z" fill="#4C729F"/>
</svg>
