<svg width="51" height="40" viewBox="0 0 51 40" fill="none" xmlns="http://www.w3.org/2000/svg">
<path d="M24.1305 32.8287C28.8877 31.9883 32.8169 31.2929 32.862 31.2834L32.9441 31.266L28.4528 25.9237C25.9826 22.9855 23.9615 20.5701 23.9615 20.5562C23.9615 20.5298 28.5991 7.75879 28.6252 7.71336C28.6339 7.69817 31.79 13.147 36.2757 20.9217C40.4753 28.2005 43.9376 34.2019 43.9698 34.2581L44.0283 34.3604L29.7547 34.3585L15.481 34.3567L24.1305 32.8287ZM7.00049 31.1996C7.00049 31.1921 9.11676 27.5184 11.7033 23.0359L16.4061 14.8858L21.8867 10.2865C24.9011 7.75685 27.3754 5.68406 27.3854 5.68028C27.3953 5.6765 27.3556 5.7763 27.2972 5.90206C27.2389 6.02782 24.5608 11.7719 21.3461 18.6667L15.5011 31.2026L11.2508 31.2079C8.91312 31.2109 7.00049 31.2071 7.00049 31.1996Z" fill="#4C739F"/>
</svg>
