<svg width="37" height="40" viewBox="0 0 37 40" fill="none" xmlns="http://www.w3.org/2000/svg">
<g clip-path="url(#clip0_372_6568)">
<path fill-rule="evenodd" clip-rule="evenodd" d="M3.92274 1.74463H28.5928C27.9682 2.75387 27.3788 3.83444 26.8244 4.96943C27.1236 4.12723 27.4159 3.33899 27.6966 2.6216H3.92274C2.74864 2.6216 1.7933 3.57677 1.7933 4.75104V29.9724C7.15533 27.9146 15.192 26.1378 20.7769 26.2031C20.3175 29.5466 20.1167 32.5845 20.171 34.9637H3.92274C2.26922 34.9637 0.916504 33.6108 0.916504 31.9574V4.75087C0.916504 3.09752 2.26922 1.74463 3.92274 1.74463Z" fill="#4C729F"/>
<path d="M34.3468 0.85403C32.6571 -0.652596 30.6113 -0.0474915 28.5925 1.74451C28.2927 2.0106 27.9937 2.30597 27.6962 2.62149C24.2423 6.2856 21.0362 13.0723 20.0402 18.2557C20.4283 19.0426 20.7314 20.0466 20.9309 20.8137C20.9821 21.0104 21.0282 21.1951 21.0651 21.3522C21.1528 21.7242 21.1999 21.9652 21.1999 21.9652C21.1999 21.9652 21.1689 21.8481 21.0418 21.4796C21.0176 21.409 20.9906 21.3319 20.9587 21.2411C20.9421 21.1967 20.9243 21.1527 20.9055 21.1093C20.6802 20.5855 20.057 19.4801 19.7827 18.9987C19.5653 19.6365 19.3601 20.2784 19.1673 20.924C19.9591 22.3727 20.4416 24.8556 20.4416 24.8556C20.4416 24.8556 20.3997 24.6947 20.2008 24.133C20.0241 23.6364 19.1443 22.0947 18.9359 21.7343C18.5793 23.0506 18.4377 23.9392 18.5655 24.1555C18.8135 24.5746 19.0497 25.298 19.2572 26.0979C19.7258 27.8998 20.0513 30.0938 20.0513 30.0938C20.0513 30.0938 20.0618 30.2393 20.0797 30.463C20.0145 31.9762 20.0535 33.5453 20.1708 34.9634C20.3259 36.8407 20.6182 38.4534 20.9907 39.3166L21.2436 39.1788C20.6967 37.4783 20.4744 35.2498 20.5717 32.6797C20.7189 28.7514 21.6229 24.0138 23.2933 19.0761C26.1155 11.6222 30.0308 5.64158 33.6142 2.78539C30.348 5.73518 25.9275 15.2831 24.6043 18.8187C23.1225 22.7782 22.0725 26.4937 21.4397 30.0535C22.5316 26.7161 26.0618 25.2817 26.0618 25.2817C26.0618 25.2817 27.7932 23.1463 29.8166 20.0955C28.6046 20.372 26.6143 20.8453 25.9477 21.1254C24.9643 21.5378 24.6995 21.6786 24.6995 21.6786C24.6995 21.6786 27.8845 19.7388 30.6173 18.8606C34.3755 12.9414 38.4701 4.53234 34.3468 0.85403Z" fill="#4C729F"/>
</g>
<defs>
<clipPath id="clip0_372_6568">
<rect width="35.1905" height="39.32" fill="white" transform="translate(0.904785)"/>
</clipPath>
</defs>
</svg>
