<svg width="41" height="40" viewBox="0 0 41 40" fill="none" xmlns="http://www.w3.org/2000/svg">
<path fill-rule="evenodd" clip-rule="evenodd" d="M28.3809 7.45019C28.0228 7.22098 27.6544 7.00088 27.2765 6.78949C30.1908 8.86465 34.2942 13.2771 31.8764 17.1667C29.8261 20.2846 24.8396 19.6739 22.1142 18.1919C18.8748 16.4374 14.8167 12.4834 18.8162 8.61861C21.4083 6.1173 29.6533 8.92176 28.202 12.6606C27.3555 14.8353 24.0619 14.352 22.5784 13.2888C21.4889 12.5039 20.5736 11.1551 21.0568 9.76237C21.2121 9.3157 21.1901 8.62301 20.5589 9.13264C20.0888 9.51341 19.8531 10.1402 19.7696 10.7231C19.0798 15.5983 27.7656 19.3781 30.3431 14.661C31.6801 12.2124 29.5127 8.65669 26.7844 7.20101C24.7341 6.10265 22.6004 5.33088 19.9849 5.51833C15.8038 5.81122 12.2934 8.43263 11.8526 12.706C11.4133 16.9529 14.2529 20.7752 17.5963 23.0612C21.111 25.463 25.8354 27.0461 30.1585 25.6138C32.4224 24.8637 33.9101 23.0348 34.6006 20.9198C33.9776 28.6008 27.6184 34.6379 19.8654 34.6379C15.4242 34.6379 11.4404 32.6569 8.73018 29.5207C8.87252 29.6402 9.01838 29.7557 9.16757 29.867C10.8136 31.1133 13.2227 32.2658 15.2158 32.9424V32.9439C15.8207 33.1504 17.8519 33.8108 17.9383 33.165C17.9714 32.9146 17.446 32.6598 16.623 32.2607L16.623 32.2607C16.2811 32.0949 15.8878 31.9042 15.4619 31.6786C13.3978 30.5877 11.5094 29.1925 9.86027 27.54C7.4531 25.1797 6.06895 21.9686 6.00578 18.5979C5.89029 14.3495 7.44246 10.8653 10.0406 8.50148C10.2087 8.35015 10.3803 8.20265 10.5551 8.05911L10.5618 8.05371L10.5606 8.05462C13.1016 5.97042 16.3393 4.72168 19.8654 4.72168C23.036 4.72168 25.9735 5.73134 28.3809 7.45019Z" fill="#4C739F"/>
<path d="M29.4004 12.949C29.8163 10.1548 27.2901 8.23638 24.9572 7.36501C22.2069 6.33988 18.5736 6.78801 16.5716 9.06527C15.1072 10.7377 15.2009 13.1658 15.9566 15.1311C17.0989 18.0996 19.6778 20.245 22.68 21.1721C24.8137 21.8311 27.3926 22.1181 29.5542 21.4225C32.7072 20.4076 33.7338 17.1199 33.0821 14.1074C32.9426 13.4562 32.7283 12.8233 32.4436 12.2212C32.0452 11.385 30.8239 9.69206 32.508 11.7511C32.6833 11.9813 32.8451 12.2214 32.9928 12.4702C33.3402 13.0396 33.6152 13.6501 33.8114 14.2876C34.7282 17.0994 34.0091 20.3798 31.4682 22.0771C29.519 23.3761 27.0411 23.5313 24.78 23.2062C21.7485 22.7669 18.8914 21.3024 16.907 18.9461C15.0925 16.7977 13.855 13.712 14.6005 10.8915C15.1467 8.82802 16.8221 7.2874 18.8284 6.64449C21.3663 5.82293 24.1605 6.20515 26.4436 7.53929C27.5874 8.20562 28.6404 9.12824 29.2174 10.3379C29.4823 10.8828 29.6248 11.4792 29.6347 12.085C29.6406 12.3304 29.6214 12.5757 29.5776 12.8172C29.5615 12.9051 29.3755 13.1526 29.4019 12.949" fill="#4C739F"/>
</svg>
