<svg width="41" height="40" viewBox="0 0 41 40" fill="none" xmlns="http://www.w3.org/2000/svg">
<g clip-path="url(#clip0_372_6560)">
<path d="M11.6649 31.1306H10.4347C10.3912 29.1161 10.2714 27.2222 10.0756 25.4476H10.0646L8.19165 31.1306H7.25505L5.39326 25.4476H5.38256C5.24445 27.1514 5.15744 29.0458 5.12131 31.1306H4C4.07227 28.5954 4.25388 26.2186 4.54413 24H6.06885L7.8434 29.2395H7.85433L9.63982 24H11.0987C11.4182 26.5986 11.6069 28.9757 11.6649 31.1306ZM17 25.8696C16.4991 28.5066 15.8383 30.4226 15.0182 31.6186C14.3792 32.5392 13.6791 33 12.9167 33C12.7135 33 12.4627 32.9405 12.1656 32.8224V32.1866C12.3108 32.2069 12.4812 32.2184 12.6771 32.2184C13.0332 32.2184 13.3194 32.1234 13.5377 31.9329C13.7987 31.7009 13.9292 31.4401 13.9292 31.1516C13.9292 30.9537 13.8274 30.5492 13.6244 29.9367L12.2744 25.8694H13.483L14.4519 28.9113C14.6697 29.602 14.7605 30.0843 14.7241 30.3589C15.254 28.986 15.6241 27.4891 15.835 25.8692H17V25.8696Z" fill="#4C739F"/>
<path d="M34 30.9329H30.4164V23.1163H31.6219V29.9707H34V30.9329ZM29.4783 31.1217L28.0926 30.4126C28.2155 30.3079 28.333 30.1947 28.4388 30.0635C29.0278 29.346 29.3216 28.285 29.3216 26.8796C29.3216 24.2936 28.343 23 26.3852 23C25.4252 23 24.6763 23.3281 24.1407 23.9847C23.5522 24.7027 23.2584 25.7599 23.2584 27.1577C23.2584 28.5317 23.5188 29.5397 24.0397 30.179C24.5163 30.7582 25.2348 31.0482 26.1955 31.0482C26.5539 31.0482 26.8827 31.0027 27.1823 30.9109L28.9863 32L29.4783 31.1217ZM24.9895 29.3688C24.6843 28.8596 24.5317 28.042 24.5317 26.9147C24.5317 24.9466 25.1082 23.9614 26.2626 23.9614C26.8659 23.9614 27.3081 24.1971 27.5909 24.6673C27.8957 25.1772 28.049 25.9874 28.049 27.099C28.049 29.0833 27.472 30.0756 26.3184 30.0756C25.7148 30.0759 25.2725 29.841 24.9895 29.3688ZM22.7331 28.7663C22.7331 29.4292 22.4985 29.973 22.03 30.399C21.5609 30.8232 20.932 31.0358 20.1438 31.0358C19.4066 31.0358 18.6919 30.7916 18 30.3057L18.324 29.6345C18.9193 29.9437 19.4583 30.0974 19.9422 30.0974C20.3964 30.0974 20.7513 29.9929 21.0088 29.7859C21.266 29.5781 21.4193 29.2866 21.4193 28.918C21.4193 28.4536 21.107 28.0567 20.5341 27.7242C20.0058 27.4234 18.9493 26.7944 18.9493 26.7944C18.3766 26.3616 18.09 25.8969 18.09 25.1314C18.09 24.4979 18.3038 23.9865 18.7316 23.5974C19.1599 23.2068 19.7126 23.0121 20.3901 23.0121C21.0897 23.0121 21.7257 23.2065 22.2986 23.5913L22.008 24.2628C21.518 24.0469 21.0344 23.9389 20.5573 23.9389C20.1709 23.9389 19.8725 24.0353 19.665 24.2287C19.4559 24.4213 19.3269 24.6678 19.3269 24.9701C19.3269 25.4323 19.6458 25.8342 20.2343 26.1733C20.7696 26.4746 21.8525 27.1145 21.8525 27.1145C22.4398 27.5465 22.7331 28.0069 22.7331 28.7663Z" fill="#4C739F"/>
<path d="M34.9735 21.0546C34.2659 21.0363 33.718 21.1089 33.2581 21.3071C33.1254 21.3611 32.9143 21.3611 32.8958 21.532C32.9675 21.6044 32.9758 21.7211 33.038 21.8209C33.1441 22.001 33.3289 22.2433 33.4977 22.3696C33.683 22.5143 33.869 22.6575 34.064 22.7836C34.4079 23.0004 34.7977 23.1265 35.1328 23.3425C35.3281 23.4681 35.5222 23.6306 35.7176 23.7659C35.8137 23.838 35.8753 23.9549 36 24V23.9725C35.9375 23.8915 35.9198 23.7743 35.8585 23.6841L35.5929 23.4233C35.3364 23.0722 35.0176 22.7658 34.6737 22.5141C34.3906 22.3154 33.7715 22.0453 33.6567 21.7131L33.6387 21.6948C33.8333 21.6762 34.064 21.6044 34.2489 21.5491C34.5497 21.4684 34.824 21.4867 35.1326 21.4059C35.2746 21.3698 35.4154 21.3244 35.5579 21.2798V21.1986C35.3979 21.0363 35.2838 20.8208 35.1156 20.6674C34.6654 20.2713 34.1693 19.8838 33.6567 19.5595C33.3822 19.3789 33.029 19.2627 32.7368 19.1091C32.6314 19.0549 32.4539 19.0281 32.3919 18.938C32.2334 18.7398 32.1441 18.4789 32.0291 18.2443C31.7735 17.7493 31.5252 17.2001 31.3046 16.6766C31.1451 16.3256 31.0481 15.975 30.8535 15.6502C29.9424 14.1192 28.9528 13.1919 27.432 12.2817C27.1051 12.0922 26.7163 12.0114 26.3009 11.9121L25.6375 11.8764C25.496 11.8133 25.3542 11.6418 25.2307 11.5608C24.7261 11.2368 23.427 10.5344 23.0559 11.4617C22.8168 12.0479 23.4095 12.6241 23.613 12.9214C23.7633 13.1278 23.9581 13.3626 24.0632 13.597C24.1254 13.7501 24.1429 13.9126 24.2052 14.0744C24.3467 14.4707 24.479 14.9117 24.665 15.2816C24.7621 15.4701 24.8679 15.6683 24.9919 15.839C25.0629 15.9388 25.1864 15.983 25.2134 16.1457C25.0901 16.3251 25.0804 16.5959 25.0096 16.821C24.6915 17.8388 24.8158 19.0995 25.2666 19.8474C25.4077 20.0726 25.7443 20.5683 26.1944 20.3783C26.593 20.2163 26.5047 19.703 26.6192 19.2528C26.6455 19.1441 26.6282 19.0727 26.6812 19.0014V19.019C26.8045 19.2709 26.929 19.5137 27.0434 19.7664C27.3177 20.2074 27.7953 20.6669 28.1931 20.9724C28.4049 21.1354 28.5727 21.4141 28.838 21.5137V21.4867H28.8205C28.7668 21.4059 28.6882 21.3698 28.6177 21.3071C28.4582 21.1448 28.2816 20.9466 28.1578 20.7668C27.7872 20.2621 27.4592 19.7035 27.1681 19.127C27.0256 18.8473 26.9028 18.5416 26.788 18.2624C26.7345 18.1546 26.7345 17.9921 26.6457 17.9379C26.5127 18.1358 26.3189 18.3072 26.2219 18.5498C26.0536 18.9377 26.0361 19.4149 25.9736 19.9111L25.9388 19.9284C25.6572 19.8563 25.5592 19.5595 25.4522 19.3076C25.1874 18.6677 25.1429 17.6406 25.3727 16.9023C25.4342 16.7135 25.7005 16.1189 25.5942 15.9391C25.541 15.7667 25.3639 15.6686 25.2669 15.5328C25.1528 15.3621 25.0278 15.1461 24.9483 14.9566C24.7363 14.4524 24.6295 13.8938 24.4011 13.3899C24.2944 13.155 24.1091 12.912 23.959 12.6957C23.7905 12.4527 23.6052 12.2815 23.472 11.9934C23.4279 11.8943 23.3662 11.7322 23.4369 11.6245C23.4542 11.5521 23.4902 11.5251 23.5607 11.5071C23.6753 11.4084 24.0026 11.5338 24.1174 11.5881C24.4452 11.7231 24.7192 11.8492 24.9928 12.0382C25.1166 12.1286 25.2494 12.2998 25.4082 12.3449H25.5942C25.8766 12.4076 26.1949 12.3623 26.4607 12.4438C26.929 12.5971 27.3534 12.822 27.734 13.0648C28.892 13.813 29.847 14.876 30.4917 16.1457C30.5975 16.3526 30.6424 16.5421 30.739 16.7579C30.9253 17.1996 31.1555 17.65 31.3404 18.0823C31.5262 18.5054 31.7032 18.9375 31.9685 19.289C32.1008 19.478 32.6324 19.5771 32.8707 19.6762C33.047 19.757 33.3216 19.8289 33.4806 19.9279C33.7814 20.1167 34.0811 20.3335 34.3639 20.5411C34.5047 20.6491 34.9473 20.8743 34.9735 21.0546ZM25.9549 13.2274C25.8328 13.2261 25.7111 13.2413 25.593 13.2727V13.2908H25.6101C25.6813 13.4347 25.8051 13.5345 25.8934 13.6601C25.9646 13.8046 26.0264 13.9478 26.0962 14.092L26.1132 14.0741C26.238 13.9842 26.3 13.84 26.3 13.6237C26.2462 13.5601 26.238 13.4979 26.1932 13.4347C26.1412 13.3445 26.0264 13.2997 25.9549 13.2274Z" fill="#4C739F"/>
<path d="M35.8095 31H36V30.0003H35.7143L35.4812 30.6825L35.2279 30.0003H34.9527V31H35.1327V30.2394H35.1428L35.4081 31H35.5452L35.8095 30.2394V31ZM34.2749 31H34.4765V30.1697H34.7403V30H34V30.1697H34.2744L34.2749 31Z" fill="#4C739F"/>
</g>
<defs>
<clipPath id="clip0_372_6560">
<rect width="39.32" height="39.32" fill="white" transform="translate(0.840088)"/>
</clipPath>
</defs>
</svg>
