<svg width="41" height="40" viewBox="0 0 41 40" fill="none" xmlns="http://www.w3.org/2000/svg">
<path fill-rule="evenodd" clip-rule="evenodd" d="M5 8C5 5.79086 6.79086 4 9 4H32C34.2091 4 36 5.79086 36 8V31C36 33.2091 34.2091 35 32 35H9C6.79086 35 5 33.2091 5 31V8ZM28.6978 29.9879C27.8421 29.9879 27.2078 29.7221 26.7029 29.2918C26.1136 28.7895 25.2895 28.5295 24.62 28.9185C23.967 29.2979 23.7085 30.1393 24.2073 30.7063C25.1852 31.8181 26.6947 32.5732 28.7652 32.5732C31.532 32.5732 33.5923 31.1364 33.5923 28.5137C33.5923 26.0809 32.1948 24.9989 29.7198 23.9375L28.9915 23.6255C27.7417 23.0843 27.2004 22.7305 27.2004 21.8566C27.2004 21.1495 27.7412 20.6082 28.5944 20.6082C28.9516 20.6082 29.2544 20.6725 29.5231 20.8159C30.2049 21.1798 31.0188 21.5037 31.6691 21.0861C32.2683 20.7014 32.4815 19.8931 31.994 19.374C31.1205 18.4439 30.0094 18.0677 28.5944 18.0677C25.9929 18.0677 24.3282 19.7309 24.3282 21.9156C24.3282 24.2874 25.7247 25.4093 27.8268 26.3048L28.5551 26.6173C29.8836 27.1984 30.6758 27.5522 30.6758 28.5511C30.6758 29.3846 29.9048 29.9879 28.6978 29.9879ZM17.4083 29.9697C16.9887 29.9697 16.6718 29.849 16.4115 29.649C15.7699 29.1559 14.9607 28.8182 14.2684 29.2373C13.64 29.6178 13.3809 30.4333 13.8553 30.9943C14.6352 31.9164 15.8189 32.5678 17.5323 32.5678C20.1137 32.5678 21.8822 31.1949 21.8822 28.1786V19.6905C21.8822 18.8861 21.2301 18.234 20.4257 18.234C19.6213 18.234 18.9692 18.8861 18.9692 19.6905V28.1392C18.9692 29.5952 18.3654 29.9697 17.4083 29.9697Z" fill="#4C729F"/>
</svg>
