<svg width="65" height="41" viewBox="0 0 65 41" fill="none" xmlns="http://www.w3.org/2000/svg">
<path d="M39.8555 16.0039H47.6311V17.4391H44.5466V24.9894H43.0042V17.4391H39.8555V16.0039Z" fill="#4C729F"/>
<path d="M27.0676 16.0039V17.4391H20.8349V19.7479H25.8472V21.183H20.8349V23.5542H27.0676V24.9894H19.2926V17.4391H19.292V16.0039H27.0676Z" fill="#4C729F"/>
<path d="M30.9502 16.0078H28.9319L36.1612 24.9933H38.1854L34.5703 20.5036L38.1797 16.0147L36.1612 16.0178L33.5598 19.2486L30.9502 16.0078Z" fill="#4C729F"/>
<path d="M33.0213 22.4262L32.0105 21.1694L28.926 25.0001H30.9502L33.0213 22.4262Z" fill="#4C729F"/>
<path fill-rule="evenodd" clip-rule="evenodd" d="M19.3466 24.9892L12.1075 16H10.1797V24.9855H11.722V17.9206L17.4091 24.9892H19.3466Z" fill="#4C729F"/>
<path d="M47.9778 24.9344C47.8648 24.9344 47.7687 24.8953 47.6883 24.8171C47.6079 24.7388 47.5681 24.6441 47.5691 24.5318C47.5681 24.4227 47.6079 24.329 47.6883 24.2507C47.7687 24.1724 47.8648 24.1333 47.9778 24.1333C48.0864 24.1333 48.1815 24.1724 48.2619 24.2507C48.3435 24.329 48.3842 24.4227 48.3853 24.5318C48.3842 24.6059 48.3654 24.6739 48.3278 24.7347C48.2891 24.7965 48.2401 24.8449 48.1783 24.8799C48.1177 24.9159 48.0509 24.9344 47.9778 24.9344Z" fill="#4C729F"/>
<path d="M50.6098 21.1494H51.2933V23.7825C51.2923 24.0245 51.2399 24.2314 51.1376 24.4055C51.0342 24.5795 50.8909 24.7123 50.707 24.806C50.5242 24.8987 50.3099 24.9461 50.0664 24.9461C49.8438 24.9461 49.6443 24.9059 49.4666 24.8276C49.289 24.7494 49.1479 24.632 49.0445 24.4775C48.9399 24.3231 48.8887 24.1305 48.8887 23.8999H49.5732C49.5743 24.0008 49.5973 24.0883 49.6411 24.1614C49.685 24.2345 49.7456 24.2901 49.823 24.3292C49.9012 24.3684 49.9912 24.3879 50.0925 24.3879C50.2023 24.3879 50.2963 24.3653 50.3726 24.3189C50.4488 24.2736 50.5074 24.2057 50.5482 24.1151C50.5879 24.0255 50.6088 23.9143 50.6098 23.7825V21.1494Z" fill="#4C729F"/>
<path d="M54.1061 22.1788C54.0894 22.0192 54.0162 21.8946 53.8888 21.8061C53.7602 21.7165 53.5941 21.6722 53.3902 21.6722C53.2471 21.6722 53.1239 21.6938 53.0215 21.736C52.919 21.7793 52.8396 21.837 52.7852 21.9101C52.7309 21.9832 52.7038 22.0666 52.7016 22.1603C52.7016 22.2386 52.7204 22.3065 52.757 22.3632C52.7936 22.4208 52.8427 22.4692 52.9064 22.5084C52.9691 22.5485 53.0391 22.5815 53.1155 22.6082C53.1928 22.635 53.2701 22.6577 53.3474 22.6762L53.7038 22.7637C53.847 22.7967 53.986 22.841 54.1187 22.8976C54.2513 22.9532 54.3716 23.0242 54.477 23.1097C54.5826 23.1952 54.6662 23.2982 54.7279 23.4186C54.7895 23.5391 54.8209 23.6802 54.8209 23.8429C54.8209 24.0622 54.7645 24.2548 54.6505 24.4216C54.5366 24.5874 54.3726 24.7171 54.1573 24.8108C53.943 24.9035 53.6839 24.9509 53.3788 24.9509C53.0841 24.9509 52.827 24.9056 52.6107 24.815C52.3934 24.7254 52.224 24.5936 52.1018 24.4206C51.9795 24.2476 51.9137 24.0365 51.9043 23.7883H52.5815C52.5909 23.9181 52.6327 24.0262 52.7038 24.1137C52.7758 24.2002 52.8699 24.2641 52.9849 24.3073C53.1009 24.3495 53.2304 24.3711 53.3736 24.3711C53.523 24.3711 53.6547 24.3485 53.7686 24.3042C53.8814 24.2599 53.9702 24.1982 54.034 24.1178C54.0988 24.0385 54.1312 23.9448 54.1323 23.8377C54.1312 23.7399 54.1019 23.6586 54.0455 23.5947C53.988 23.5309 53.9086 23.4773 53.8072 23.4341C53.7049 23.3908 53.5857 23.3517 53.4498 23.3177L53.0173 23.2086C52.7048 23.1293 52.4571 23.0088 52.2763 22.8471C52.0945 22.6855 52.0046 22.4713 52.0046 22.2025C52.0046 21.9822 52.0652 21.7886 52.1876 21.6228C52.3087 21.457 52.4749 21.3283 52.6849 21.2366C52.896 21.144 53.1343 21.0986 53.3997 21.0986C53.6693 21.0986 53.9054 21.144 54.1093 21.2366C54.313 21.3283 54.473 21.456 54.5889 21.6187C54.7049 21.7814 54.7655 21.9677 54.7687 22.1788H54.1061Z" fill="#4C729F"/>
</svg>
