<svg width="39" height="39" viewBox="0 0 39 39" fill="none" xmlns="http://www.w3.org/2000/svg">
<g clip-path="url(#clip0_372_6271)">
<path d="M39.32 28.2679C18.7632 30.9492 4.09073 34.1697 3.87368 20.9508C3.87368 20.9508 4.32225 15.8288 10.6166 15.5063C10.6166 15.5063 10.8289 10.9571 15.6377 10.442C18.223 10.1628 21.1603 12.8201 21.4787 15.617C21.4787 15.617 27.8406 14.4424 28.1155 20.633C28.212 22.7897 27.7248 26.4578 21.5896 26.299C21.5896 26.299 18.0397 25.8176 17.5573 20.3394C16.5589 30.9444 31.9211 30.3282 32.143 20.6956C32.2394 16.5316 29.5673 12.2473 23.5479 13.0512C20.2487 4.76648 11.4655 5.24306 8.19534 12.926C3.52158 12.926 -0.0524731 16.5172 0.000583058 21.2059C0.179045 36.2974 21.223 31.7483 39.32 28.2679Z" fill="#4C739F"/>
</g>
<defs>
<clipPath id="clip0_372_6271">
<rect width="39" height="39" fill="white"/>
</clipPath>
</defs>
</svg>
