<svg width="31" height="39" viewBox="0 0 31 39" fill="none" xmlns="http://www.w3.org/2000/svg">
<path d="M29.1826 23.1859C25.4848 23.9742 25.2306 22.6803 25.2306 22.6803C29.1349 16.693 30.7669 9.09297 29.3585 7.2329C25.5161 2.15899 18.8647 4.55862 18.7537 4.62092L18.718 4.62753C17.9875 4.4708 17.1699 4.37743 16.251 4.36193C14.5778 4.33359 13.3087 4.81526 12.3456 5.57006C12.3456 5.57006 0.480255 0.518188 1.0321 11.9237C1.14949 14.3502 4.3971 30.2833 8.27073 25.4708C9.68653 23.711 11.0545 22.2231 11.0545 22.2231C11.7339 22.6895 12.5473 22.9275 13.4001 22.842L13.4663 22.7839C13.4457 23.0024 13.4551 23.2161 13.4928 23.4691C12.4949 24.6214 12.7882 24.8237 10.7933 25.2481C8.77479 25.678 9.96058 26.4435 10.7348 26.6435C11.6734 26.8861 13.8448 27.2297 15.312 25.107L15.2535 25.3492C15.6445 25.6729 15.919 27.4545 15.873 29.0696C15.827 30.6847 15.7963 31.7935 16.1043 32.6596C16.4124 33.5257 16.7195 35.4745 19.3419 34.8937C21.5332 34.4084 22.6687 33.1507 22.8266 31.0529C22.9387 29.5614 23.1924 29.7819 23.2085 28.4485L23.4119 27.8172C23.6466 25.7955 23.4492 25.1433 24.7992 25.4466L25.1273 25.4764C26.1209 25.5231 27.4214 25.3112 28.1847 24.9446C29.8282 24.1563 30.8029 22.8401 29.1824 23.1859H29.1826Z" fill="#4C739F"/>
<path d="M12.015 13.2386C11.9846 13.4259 12.4079 13.9256 12.9597 13.9923C13.5105 14.0594 13.982 13.6689 14.0119 13.4818C14.0418 13.2945 13.6192 13.0882 13.0671 13.0212C12.5159 12.9541 12.0442 13.0518 12.0151 13.2386H12.015Z" fill="#010A13" stroke="#010A13"/>
<path d="M24.0127 13.2386C24.0276 13.4258 23.8163 13.9256 23.5405 13.9923C23.2649 14.0594 23.0292 13.6689 23.0141 13.4818C22.9996 13.2945 23.2109 13.0882 23.4865 13.0212C23.7621 12.9541 23.9977 13.0517 24.0127 13.2387V13.2386Z" fill="#010A13" stroke="#010A13"/>
<path d="M15.4832 24.3218C15.3783 28.0708 15.5095 31.8459 15.8764 32.7634C16.2434 33.6809 17.0289 35.4655 19.7302 34.8868C21.9869 34.403 22.808 33.4667 23.1643 31.4001C23.4267 29.8797 23.9326 25.657 23.9975 24.7918" stroke="#010A13" stroke-linecap="round" stroke-linejoin="round"/>
<path d="M12.2454 5.52805C12.2454 5.52805 0.016125 0.529764 0.584656 11.8962C0.70557 14.3143 4.05073 30.1934 8.04037 25.3971C9.4983 23.6431 10.8168 22.2675 10.8168 22.2675" stroke="#010A13" stroke-linecap="round" stroke-linejoin="round"/>
<path d="M18.8511 4.6156C18.4277 4.74832 25.6537 1.97404 29.7603 7.22142C31.2109 9.07518 29.53 16.6492 25.5088 22.6161" stroke="#010A13" stroke-linecap="round" stroke-linejoin="round"/>
<path d="M25.5084 22.616C25.5084 22.616 25.7704 23.9059 29.579 23.1198C31.2477 22.7751 30.2435 24.0869 28.551 24.8729C27.1621 25.5175 24.0481 25.6827 23.9972 24.792C23.8663 22.4937 25.6361 23.1919 25.5084 22.616ZM25.5084 22.616C25.3929 22.0974 24.6015 21.5884 24.0779 20.3191C23.6208 19.2111 17.8091 10.7149 25.6896 11.9767C25.9783 11.917 23.6343 4.48098 16.2593 4.36007C8.88597 4.23916 9.12787 13.4276 9.12787 13.4276" stroke="#010A13" stroke-linecap="round" stroke-linejoin="bevel"/>
<path d="M13.4189 23.4022C12.3909 24.5505 12.6933 24.7521 10.6385 25.1752C8.55946 25.6037 9.78095 26.3664 10.5781 26.5657C11.5448 26.8076 13.7813 27.15 15.2925 25.0341C15.7527 24.3898 15.2898 23.3619 14.6576 23.0998C14.3522 22.9733 13.9438 22.8148 13.4189 23.4022Z" stroke="#010A13" stroke-linecap="round" stroke-linejoin="round"/>
<path d="M13.352 23.382C13.2485 22.7068 13.5739 21.9035 13.9226 20.9636C14.4467 19.5533 15.6559 18.1429 14.6886 13.6694C13.9676 10.3358 9.13156 12.9757 9.12854 13.4277C9.12558 13.8795 9.34727 15.7187 9.04775 17.8605C8.65692 20.6553 10.8261 23.019 13.324 22.7772" stroke="#010A13" stroke-linecap="round" stroke-linejoin="round"/>
<path d="M25.6899 11.9771C25.7552 13.188 25.4291 14.0128 25.388 15.3019C25.3271 17.1757 26.2813 19.3203 24.8435 21.4676" stroke="#010A13" stroke-linecap="round" stroke-linejoin="round"/>
</svg>
