<svg width="41" height="40" viewBox="0 0 41 40" fill="none" xmlns="http://www.w3.org/2000/svg">
<g clip-path="url(#clip0_372_6674)">
<path d="M20.0137 0.0274779C19.9381 0.0309147 19.6528 0.054972 19.3779 0.0755926C15.9411 0.329913 12.4563 1.60151 9.60031 3.64295C8.6552 4.31656 7.90942 4.94892 7.07772 5.78062C2.29719 10.5646 0.327922 17.4106 1.82291 24.0608C2.43466 26.7895 3.74063 29.5355 5.47276 31.7419C8.19124 35.2096 11.9167 37.6532 16.0958 38.7117C17.797 39.1447 19.2095 39.32 20.9932 39.32C22.7528 39.32 24.0485 39.1619 25.7256 38.7529C28.1348 38.1618 30.2518 37.1892 32.3689 35.7079C34.3965 34.2851 36.2833 32.2918 37.6374 30.1438C39.3833 27.3669 40.3765 24.3013 40.6205 20.9367C40.6721 20.2288 40.6411 18.476 40.5655 17.7543C40.4143 16.3212 40.0294 14.4309 39.806 14.0357C39.7167 13.8811 39.4658 13.6817 39.2802 13.6164C39.2149 13.5958 39.0705 13.5786 38.9537 13.5786C38.4382 13.5786 38.0051 14.0082 38.0051 14.5134C38.0051 14.6337 38.0601 14.9224 38.1392 15.2352C38.8197 17.8815 38.8746 20.789 38.2938 23.4421C37.5515 26.8411 35.895 29.838 33.3965 32.2952C32.2314 33.4397 31.1076 34.2851 29.6538 35.1168C26.2617 37.0586 22.0448 37.7941 18.0891 37.1342C15.0854 36.6359 12.4769 35.4811 9.99897 33.5531C8.83391 32.6458 7.41453 31.1508 6.53472 29.8998C5.01567 27.7415 4.06025 25.4664 3.56535 22.8235C3.31447 21.4763 3.22855 19.6892 3.3454 18.2354C3.52411 16.029 4.07743 13.9807 5.01567 12.039C5.4487 11.1351 5.71677 10.6643 6.23572 9.88411C7.29424 8.28258 8.69644 6.78415 10.2464 5.59503C12.0645 4.19627 14.2228 3.13431 16.4051 2.56381C17.5839 2.2545 18.5256 2.09985 19.7216 2.01393C24.0485 1.70462 28.2551 2.94873 31.6815 5.55723C31.9358 5.74969 32.2039 5.95933 32.2761 6.02463L32.4067 6.13804L32.3551 6.28239C32.0905 7.02473 32.2864 7.94922 32.8431 8.59533C33.1284 8.92526 33.6439 9.23456 34.0804 9.33767C34.3794 9.40984 34.8983 9.40984 35.2008 9.33767C35.9671 9.15552 36.682 8.4991 36.9088 7.7705C37.1631 6.95599 37.0154 6.15179 36.493 5.4988C35.9156 4.77708 34.9224 4.45403 34.0048 4.6946L33.8054 4.74615L33.5236 4.51245C32.3792 3.5536 30.9942 2.66691 29.537 1.96238C27.1725 0.817933 24.7977 0.202753 22.0929 0.0377882C21.574 0.00685733 20.3471 -1.61706e-05 20.0137 0.0274779Z" fill="#4C739F"/>
<path d="M17.9791 11.3345C17.6149 12.2762 16.8244 14.3383 16.2161 15.9157C15.6078 17.4932 14.3602 20.7341 13.4426 23.1158C12.5284 25.4974 11.7689 27.4564 11.762 27.4701C11.7517 27.4873 12.7175 27.4976 13.9031 27.4976H16.0649L16.192 27.1436C16.2642 26.9512 16.5185 26.2707 16.7557 25.6315L17.1887 24.4733H20.433C23.0174 24.4733 23.6773 24.463 23.667 24.4286C23.6326 24.3358 23.1034 22.8236 22.8215 22.016L22.5191 21.1568L20.3711 21.1396L18.2266 21.1224L19.6219 17.2767C20.4605 14.9672 21.0276 13.455 21.0379 13.4894C21.0516 13.5203 21.6084 15.1047 22.2785 17.0086C22.9487 18.9126 24.0553 22.0469 24.7358 23.9749L25.9696 27.4804L28.121 27.4908C29.3033 27.4942 30.2724 27.4908 30.2724 27.4839C30.2724 27.477 29.9941 26.745 29.6504 25.8617C29.3067 24.975 28.5713 23.0676 28.0145 21.6208C27.4577 20.1739 26.8322 18.5517 26.6226 18.0122C26.4164 17.4726 26.0555 16.5378 25.8218 15.9329C25.5881 15.3281 24.9798 13.7437 24.4643 12.4102C23.9488 11.0768 23.4986 9.90484 23.4608 9.80518L23.3955 9.62646H18.6356L17.9791 11.3345Z" fill="#4C739F"/>
</g>
<defs>
<clipPath id="clip0_372_6674">
<rect width="40.4527" height="39.32" fill="white" transform="translate(0.273682)"/>
</clipPath>
</defs>
</svg>
